<?xml version="1.0" encoding="utf-8"?>
<!-- Generator: Adobe Illustrator 26.0.0, SVG Export Plug-In . SVG Version: 6.00 Build 0)  -->
<svg version="1.1" id="Layer_1" xmlns="http://www.w3.org/2000/svg" xmlns:xlink="http://www.w3.org/1999/xlink" x="0px" y="0px"
	 viewBox="0 0 13.96 24.43" style="enable-background:new 0 0 13.96 24.43;" xml:space="preserve">
<style type="text/css">
	.st0{fill:#2DA1A5;}
	.st1{fill-rule:evenodd;clip-rule:evenodd;fill:#D42D5D;}
</style>
<path class="st0" d="M13.53,0c0.29,0,0.43,0.15,0.43,0.46v16.98c0,1.93-0.68,3.57-2.05,4.94c-1.36,1.36-3,2.05-4.92,2.05
	c-1.45,0-2.77-0.4-3.95-1.21c-1.18-0.81-2.03-1.9-2.56-3.25L0.2,19.26c-0.02-0.08-0.03-0.15-0.03-0.22c0-0.18,0.09-0.3,0.28-0.38
	l1.47-0.58c0.09-0.03,0.16-0.05,0.23-0.05c0.18,0,0.3,0.1,0.37,0.3l0.28,0.74c0.34,0.87,0.89,1.56,1.65,2.08
	c0.76,0.52,1.61,0.78,2.54,0.78c1.24,0,2.3-0.44,3.17-1.31c0.88-0.88,1.32-1.94,1.32-3.19v-3.44c-1.3,1.09-2.8,1.64-4.49,1.64H5.63
	c-1.55,0-2.88-0.55-3.98-1.64C0.55,12.9,0,11.58,0,10.03V0.46C0,0.15,0.15,0,0.46,0h1.57c0.3,0,0.44,0.15,0.44,0.46v9.56
	c0,0.86,0.31,1.6,0.93,2.21c0.62,0.62,1.36,0.93,2.23,0.93h1.35c1.24,0,2.3-0.44,3.17-1.32c0.88-0.88,1.32-1.94,1.32-3.17V0.46
	c0-0.31,0.15-0.46,0.45-0.46H13.53z"/>
</svg>
