<?xml version="1.0" encoding="utf-8"?>
<!-- Generator: Adobe Illustrator 26.0.0, SVG Export Plug-In . SVG Version: 6.00 Build 0)  -->
<svg version="1.1" id="Layer_1" xmlns="http://www.w3.org/2000/svg" xmlns:xlink="http://www.w3.org/1999/xlink" x="0px" y="0px"
	 viewBox="0 0 17.04 24.43" style="enable-background:new 0 0 17.04 24.43;" xml:space="preserve">
<style type="text/css">
	.st0{fill:#2DA1A5;}
	.st1{fill-rule:evenodd;clip-rule:evenodd;fill:#D42D5D;}
</style>
<path class="st0" d="M14.76,23.88L2.48,5.37v18.61c0,0.3-0.15,0.45-0.45,0.45H0.46C0.15,24.43,0,24.28,0,23.98V1.24
	c0-0.61,0.29-0.99,0.87-1.17C1.03,0.02,1.17,0,1.3,0c0.4,0,0.72,0.19,0.97,0.56l12.27,18.51V0.46C14.55,0.15,14.7,0,15.01,0h1.57
	c0.31,0,0.46,0.15,0.46,0.46v22.73c0,0.62-0.3,1.01-0.89,1.19c-0.11,0.03-0.23,0.05-0.37,0.05C15.35,24.43,15.01,24.25,14.76,23.88"
	/>
</svg>
