<?xml version="1.0" encoding="utf-8"?>
<!-- Generator: Adobe Illustrator 26.0.0, SVG Export Plug-In . SVG Version: 6.00 Build 0)  -->
<svg version="1.1" id="Layer_1" xmlns="http://www.w3.org/2000/svg" xmlns:xlink="http://www.w3.org/1999/xlink" x="0px" y="0px"
	 viewBox="0 0 14.86 24.41" style="enable-background:new 0 0 14.86 24.41;" xml:space="preserve">
<style type="text/css">
	.st0{fill:#2DA1A5;}
	.st1{fill-rule:evenodd;clip-rule:evenodd;fill:#D42D5D;}
</style>
<path class="st0" d="M8.74,0.05c1.73,0.21,3.18,0.97,4.34,2.28c1.19,1.32,1.79,2.87,1.79,4.64v2.82c0,1.55-0.55,2.88-1.65,3.98
	c-1.1,1.1-2.43,1.65-3.98,1.65H2.48v8.52c0,0.31-0.15,0.46-0.45,0.46H0.45c-0.3,0-0.45-0.15-0.45-0.46V2.33
	c0-0.64,0.22-1.19,0.68-1.65C1.14,0.23,1.69,0,2.33,0h6.41V0.05z M12.39,6.97c0-1.23-0.44-2.29-1.32-3.17
	c-0.88-0.88-1.94-1.32-3.17-1.32H2.48v10.45h6.75c0.87,0,1.61-0.3,2.23-0.91c0.62-0.62,0.93-1.36,0.93-2.23V6.97z"/>
</svg>
