<?xml version="1.0" encoding="utf-8"?>
<!-- Generator: Adobe Illustrator 26.0.0, SVG Export Plug-In . SVG Version: 6.00 Build 0)  -->
<svg version="1.1" id="Layer_1" xmlns="http://www.w3.org/2000/svg" xmlns:xlink="http://www.w3.org/1999/xlink" x="0px" y="0px"
	 viewBox="0 0 23.53 24.43" style="enable-background:new 0 0 23.53 24.43;" xml:space="preserve">
<style type="text/css">
	.st0{fill:#2DA1A5;}
	.st1{fill-rule:evenodd;clip-rule:evenodd;fill:#D42D5D;}
</style>
<path class="st0" d="M17.04,0c1.78,0,3.31,0.64,4.59,1.92c1.26,1.28,1.9,2.81,1.9,4.59v17.46c0,0.31-0.15,0.46-0.46,0.46h-1.55
	c-0.31,0-0.46-0.15-0.46-0.46V6.51c0-1.11-0.4-2.06-1.19-2.84c-0.78-0.78-1.72-1.17-2.82-1.17c-0.91,0-1.71,0.15-2.38,0.46
	c-1.1,0.53-1.65,1.42-1.65,2.68v18.33c0,0.31-0.16,0.46-0.46,0.46h-1.57c-0.3,0-0.44-0.15-0.44-0.46V5.63
	c0-1.26-0.56-2.15-1.67-2.68C8.2,2.65,7.4,2.49,6.49,2.49c-1.1,0-2.04,0.39-2.82,1.17C2.87,4.45,2.48,5.4,2.48,6.51v17.46
	c0,0.31-0.15,0.46-0.44,0.46H0.44c-0.3,0-0.44-0.15-0.44-0.46V6.51c0-1.79,0.63-3.33,1.9-4.59C3.16,0.64,4.69,0,6.49,0
	c2.32,0,4.08,0.71,5.27,2.13C12.98,0.71,14.74,0,17.04,0"/>
</svg>
