<?xml version="1.0" encoding="utf-8"?>
<!-- Generator: Adobe Illustrator 26.0.0, SVG Export Plug-In . SVG Version: 6.00 Build 0)  -->
<svg version="1.1" id="Layer_1" xmlns="http://www.w3.org/2000/svg" xmlns:xlink="http://www.w3.org/1999/xlink" x="0px" y="0px"
	 viewBox="0 0 13.96 24.43" style="enable-background:new 0 0 13.96 24.43;" xml:space="preserve">
<style type="text/css">
	.st0{fill:#2DA1A5;}
	.st1{fill-rule:evenodd;clip-rule:evenodd;fill:#D42D5D;}
</style>
<path class="st0" d="M2.05,22.38C0.68,21.03,0,19.38,0,17.44V7c0-1.94,0.68-3.59,2.05-4.96C3.41,0.68,5.06,0,6.98,0
	c1.92,0,3.56,0.68,4.92,2.05c1.36,1.38,2.05,3.03,2.05,4.96v0.78c0,0.3-0.15,0.44-0.46,0.44h-1.57c-0.31,0-0.46-0.15-0.46-0.44V7
	c0-1.25-0.44-2.32-1.3-3.2c-0.88-0.87-1.94-1.3-3.17-1.3c-1.25,0-2.32,0.44-3.19,1.3C2.92,4.68,2.48,5.75,2.48,7v10.44
	c0,1.25,0.44,2.31,1.32,3.19c0.88,0.88,1.94,1.32,3.19,1.32c1.23,0,2.29-0.44,3.17-1.32c0.87-0.88,1.3-1.94,1.3-3.19v-0.78
	c0-0.31,0.15-0.46,0.46-0.46h1.57c0.31,0,0.46,0.15,0.46,0.46v0.78c0,1.93-0.68,3.57-2.05,4.94c-1.37,1.36-3.01,2.05-4.92,2.05
	C5.05,24.43,3.4,23.74,2.05,22.38"/>
</svg>
