<?xml version="1.0" encoding="utf-8"?>
<!-- Generator: Adobe Illustrator 26.0.0, SVG Export Plug-In . SVG Version: 6.00 Build 0)  -->
<svg version="1.1" id="Layer_1" xmlns="http://www.w3.org/2000/svg" xmlns:xlink="http://www.w3.org/1999/xlink" x="0px" y="0px"
	 viewBox="0 0 13.95 24.43" style="enable-background:new 0 0 13.95 24.43;" xml:space="preserve">
<style type="text/css">
	.st0{fill:#2DA1A5;}
	.st1{fill-rule:evenodd;clip-rule:evenodd;fill:#D42D5D;}
</style>
<path class="st0" d="M2.05,22.38C0.68,21.01,0,19.37,0,17.44V6.99c0-1.93,0.68-3.57,2.05-4.94C3.41,0.68,5.06,0,6.98,0
	c1.93,0,3.57,0.68,4.92,2.05c1.36,1.37,2.05,3.01,2.05,4.94v10.45c0,1.93-0.68,3.57-2.05,4.94c-1.36,1.36-3,2.05-4.92,2.05
	C5.06,24.43,3.41,23.74,2.05,22.38 M3.8,3.8c-0.87,0.88-1.3,1.94-1.3,3.19v10.45c0,1.25,0.43,2.31,1.3,3.19
	c0.88,0.88,1.94,1.32,3.19,1.32c1.24,0,2.3-0.44,3.17-1.32c0.87-0.88,1.3-1.94,1.3-3.19V6.99c0-1.24-0.44-2.31-1.3-3.19
	c-0.87-0.87-1.93-1.3-3.17-1.3C5.74,2.49,4.68,2.93,3.8,3.8"/>
</svg>
