<?xml version="1.0" encoding="utf-8"?>
<!-- Generator: Adobe Illustrator 26.0.0, SVG Export Plug-In . SVG Version: 6.00 Build 0)  -->
<svg version="1.1" id="Layer_1" xmlns="http://www.w3.org/2000/svg" xmlns:xlink="http://www.w3.org/1999/xlink" x="0px" y="0px"
	 viewBox="0 0 13.97 24.41" style="enable-background:new 0 0 13.97 24.41;" xml:space="preserve">
<style type="text/css">
	.st0{fill:#2DA1A5;}
	.st1{fill-rule:evenodd;clip-rule:evenodd;fill:#D42D5D;}
</style>
<path class="st0" d="M13.97,8.9c0,1.78-0.71,3.24-2.13,4.38c1.42,1.16,2.13,2.62,2.13,4.39v6.29c0,0.3-0.15,0.45-0.46,0.45h-1.58
	c-0.3,0-0.45-0.15-0.45-0.45v-6.29c0-0.87-0.31-1.61-0.92-2.23c-0.62-0.62-1.36-0.92-2.23-0.92H2.48v9.45c0,0.3-0.15,0.45-0.44,0.45
	H0.45c-0.3,0-0.45-0.15-0.45-0.45V2.33c0-0.65,0.22-1.2,0.68-1.65C1.14,0.23,1.69,0,2.33,0h5.5v0.05c1.74,0.21,3.19,0.97,4.36,2.28
	c1.19,1.33,1.78,2.88,1.78,4.64V8.9z M8.32,12.04c0.87,0,1.61-0.31,2.23-0.92c0.62-0.62,0.92-1.36,0.92-2.21V6.97
	c0-1.23-0.44-2.29-1.32-3.17C9.28,2.91,8.22,2.46,6.98,2.46H2.48v9.58H8.32z"/>
</svg>
