<?xml version="1.0" encoding="utf-8"?>
<!-- Generator: Adobe Illustrator 26.0.0, SVG Export Plug-In . SVG Version: 6.00 Build 0)  -->
<svg version="1.1" id="Layer_1" xmlns="http://www.w3.org/2000/svg" xmlns:xlink="http://www.w3.org/1999/xlink" x="0px" y="0px"
	 viewBox="0 0 13.97 24.41" style="enable-background:new 0 0 13.97 24.41;" xml:space="preserve">
<style type="text/css">
	.st0{fill:#2DA1A5;}
	.st1{fill-rule:evenodd;clip-rule:evenodd;fill:#D42D5D;}
</style>
<path class="st0" d="M6.98,0c1.93,0,3.57,0.68,4.94,2.05c1.37,1.35,2.05,2.99,2.05,4.92v16.99c0,0.3-0.15,0.45-0.46,0.45h-1.57
	c-0.31,0-0.46-0.15-0.46-0.45v-9.2h-9v9.2c0,0.3-0.15,0.45-0.44,0.45H0.44c-0.3,0-0.44-0.15-0.44-0.45V6.97
	C0,5.04,0.68,3.4,2.05,2.05C3.41,0.68,5.06,0,6.98,0 M11.48,12.27v-5.3c0-1.23-0.44-2.29-1.32-3.17C9.28,2.91,8.22,2.46,6.98,2.46
	c-1.24,0-2.31,0.44-3.19,1.34C2.92,4.68,2.48,5.74,2.48,6.97v5.3H11.48z"/>
</svg>
