<?xml version="1.0" encoding="utf-8"?>
<!-- Generator: Adobe Illustrator 26.0.0, SVG Export Plug-In . SVG Version: 6.00 Build 0)  -->
<svg version="1.1" id="Layer_1" xmlns="http://www.w3.org/2000/svg" xmlns:xlink="http://www.w3.org/1999/xlink" x="0px" y="0px"
	 viewBox="0 0 107.7 107.7" style="enable-background:new 0 0 107.7 107.7;" xml:space="preserve">
<style type="text/css">
	.st0{fill:#2EA1A6;}
</style>
<g>
	<g>
		<path class="st0" d="M106.9,99.1H61.7V29.8h26.8v6.3c0,0.3,0.1,0.5,0.4,0.7c0.2,0.1,0.2,0.1,0.3,0.1c0.2,0,0.3,0,0.4-0.1
			l17.7-12.4c0.2-0.1,0.3-0.4,0.3-0.6c0-0.2-0.1-0.5-0.3-0.6L89.7,10.8c-0.2-0.1-0.5-0.2-0.8,0c-0.2,0.1-0.4,0.4-0.4,0.7v6.3H61.7
			v-2.8c0-0.4-0.3-0.8-0.8-0.8h-2.8V8.6h2.8c2.4,0,4.3-1.9,4.3-4.3S63.3,0,60.9,0H46.8c-2.4,0-4.3,1.9-4.3,4.3s1.9,4.3,4.3,4.3h2.8
			v5.6h-2.8c-0.4,0-0.8,0.3-0.8,0.8v2.8H19.2v-6.4c0-0.3-0.2-0.5-0.4-0.7c-0.2-0.1-0.5-0.1-0.7,0.1L0.3,23.1C0.1,23.3,0,23.5,0,23.8
			s0.1,0.5,0.3,0.6L18,36.8c0.1,0.1,0.3,0.1,0.4,0.1c0.1,0,0.2,0,0.3-0.1c0.2-0.2,0.4-0.4,0.4-0.7v-6.4H46v19.8H19.2v-6.3
			c0-0.3-0.2-0.5-0.4-0.7c-0.2-0.1-0.5-0.1-0.7,0L0.3,55C0.1,55.1,0,55.4,0,55.6s0.1,0.5,0.3,0.6L18,68.6c0.1,0.1,0.3,0.1,0.4,0.1
			c0.1,0,0.2,0,0.3-0.1c0.2-0.1,0.4-0.4,0.4-0.7v-6.4H46v37.5H0.8c-0.4,0-0.8,0.3-0.8,0.8v7.1c0,0.4,0.3,0.8,0.8,0.8h106.2
			c0.4,0,0.8-0.3,0.8-0.8v-7.1C107.7,99.4,107.3,99.1,106.9,99.1z M61.7,19.1h27.8c0.3-0.1,0.6-0.4,0.6-0.7v-5.6l15.7,10.9L90,34.7
			V29c0-0.4-0.3-0.8-0.8-0.8H61.7V19.1z M46.8,7.1c-1.6,0-2.8-1.3-2.8-2.8c0-1.5,1.3-2.8,2.8-2.8H61c1.5,0,2.8,1.3,2.8,2.8
			S62.5,7.1,61,7.1H46.8z M56.7,8.6v5.6h-5.6V8.6C51.1,8.6,56.7,8.6,56.7,8.6z M47.5,15.6h12.7v83.5H47.5V15.6z M18.2,28.4
			c-0.3,0.1-0.5,0.4-0.5,0.7v5.7l-15.7-11l15.7-10.9v5.7c0,0.4,0.3,0.8,0.8,0.8H46v9.1C46,28.4,18.2,28.4,18.2,28.4z M18.2,60.2
			c-0.3,0.1-0.5,0.4-0.5,0.7v5.7L2.1,55.6l15.7-11v5.7c0,0.4,0.3,0.8,0.8,0.8H46v9.1L18.2,60.2L18.2,60.2z M106.2,106.2H1.5v-5.6
			h104.7L106.2,106.2L106.2,106.2z"/>
	</g>
	<g>
		<g>
			<path class="st0" d="M96.9,51.6c-3.2-2.9-7.2-4.5-11.4-4.5c-0.4,0-0.8,0-1.1,0c-4.4,0.3-8.2,2.3-11.1,5.4
				c-2.8,3.1-4.5,7.2-4.5,11.8v0.4c0,4.1,1.2,8.1,3.6,11.5l12.5,18c0.2,0.2,0.4,0.3,0.6,0.3c0.2,0,0.5-0.1,0.6-0.3l12.5-18
				c2.3-3.4,3.6-7.4,3.6-11.5v-1C102.2,59.2,100.3,54.8,96.9,51.6z M100.7,64.8c0,3.8-1.2,7.5-3.3,10.6L85.5,92.6L73.6,75.4
				c-2.2-3.2-3.3-6.8-3.3-10.6v-0.4c0-8.3,6.2-15.2,14.2-15.7c0.3,0,0.7,0,1,0c3.8,0,7.5,1.5,10.4,4.1c3.1,2.8,4.8,6.8,4.8,11.1
				L100.7,64.8L100.7,64.8z"/>
		</g>
		<g>
			<path class="st0" d="M85.5,54.2c-5.3,0-9.6,4.3-9.6,9.6s4.3,9.6,9.6,9.6s9.6-4.3,9.6-9.6S90.8,54.2,85.5,54.2z M85.5,71.9
				c-4.5,0-8.1-3.6-8.1-8.1s3.6-8.1,8.1-8.1c2.1,0,4.2,0.8,5.7,2.3c1.6,1.5,2.4,3.6,2.4,5.8C93.6,68.3,90,71.9,85.5,71.9z"/>
		</g>
	</g>
</g>
</svg>
