<?xml version="1.0" encoding="utf-8"?>
<!-- Generator: Adobe Illustrator 26.0.0, SVG Export Plug-In . SVG Version: 6.00 Build 0)  -->
<svg version="1.1" id="Layer_1" xmlns="http://www.w3.org/2000/svg" xmlns:xlink="http://www.w3.org/1999/xlink" x="0px" y="0px"
	 viewBox="0 0 113.8 135" style="enable-background:new 0 0 113.8 135;" xml:space="preserve">
<style type="text/css">
	.st0{fill:#2EA1A6;stroke:#2EA1A6;stroke-width:0.3;stroke-miterlimit:10;}
</style>
<g>
	<path class="st0" d="M104.8,22.6h-17v16.5h-8.1V19.3l-5.1-9.7c0,0,0,0,0,0l0,0c0-0.1-0.1-0.3-0.2-0.4v0l-3.9-7.4
		c-0.6-1-1.7-1.5-2.8-1.5h0c-1.2,0-2.2,0.6-2.8,1.6l-3.7,7.4v0l0,0c-0.1,0.1-0.2,0.3-0.2,0.4l0,0c0,0,0,0,0,0L56.1,19
		c0,0,0,0.1,0,0.1c0,0,0,0,0,0l0,0.1v0.1v0v0v19.7h-9.3V1.7H20v37.4h-7.6c-6.8,0-12.3,5.5-12.3,12.3v61.4v5.6v7.6
		c0,4.9,4,8.9,8.9,8.9h17v-16.5h75.4c6.8,0,12.3-5.5,12.3-12.3V39.7v-0.7v-7.6C113.7,26.6,109.7,22.6,104.8,22.6z M66,2.4
		c0.4-0.6,1-1,1.7-1c0,0,0,0,0,0c0.7,0,1.3,0.4,1.7,0.9L72.9,9H62.7L66,2.4z M57.7,18.8l4.3-8.5l0,0h11.5l0,0l4.4,8.5l0,0h-5.6l0,0
		h-9.1l0,0H57.7L57.7,18.8z M78.4,20.1v19h-6v-19H78.4z M71.1,20.1v19h-6.5v-19H71.1z M57.3,20.1h6v19h-6V20.1z M21.2,3h24.1v6h-8.9
		c-0.4,0-0.7,0.3-0.7,0.6s0.3,0.6,0.7,0.6h8.9v6.4H31.9c-0.4,0-0.6,0.3-0.6,0.6s0.3,0.6,0.6,0.6h13.5v6.4h-8.9
		c-0.4,0-0.7,0.3-0.7,0.6s0.3,0.6,0.7,0.6h8.9v6H31.9c-0.4,0-0.6,0.3-0.6,0.7s0.3,0.7,0.6,0.7h13.5v6l0,0H21.2l0,0V3z M24.7,133.6
		H9.1c-4.2,0-7.6-3.4-7.6-7.6c0-4.2,3.4-7.6,7.6-7.6h15.7C24.7,118.4,24.7,133.6,24.7,133.6z M112.4,36.6V38v1.1v0.7v66.4
		c0,6.1-4.9,11-11,11H26h-17c-1.5,0-2.9,0.4-4.2,1.1c-0.2,0.1-0.3,0.2-0.4,0.2c-0.2,0.1-0.3,0.2-0.5,0.3h0c-0.7,0.5-1.3,1.1-1.8,1.7
		c-0.2,0.3-0.5,0.6-0.6,0.9v-0.4v-1v-1.6v-0.1v-5.5V51.4c0-6,4.9-11,11-11h8.2H46h10h7.3h9.1h7.3h8.1h17c1.3,0,2.6-0.3,3.7-0.8
		c0.3-0.1,0.6-0.3,0.9-0.5c0.1-0.1,0.2-0.1,0.3-0.2c0.6-0.4,1.1-0.8,1.6-1.4c0.1-0.1,0.2-0.2,0.3-0.3c0.2-0.2,0.3-0.4,0.4-0.6
		c0.1-0.2,0.2-0.3,0.4-0.5C112.4,36.1,112.4,36.6,112.4,36.6z M104.8,39.1H89.1V23.9h15.7c4.2,0,7.6,3.4,7.6,7.6
		S109,39.1,104.8,39.1z"/>
	<path class="st0" d="M63.5,86.5H36.7c-0.4,0-0.7,0.3-0.7,0.7s0.3,0.7,0.7,0.7h12.2v16.7H27.7V74.8h17.5c0.4,0,0.7-0.3,0.7-0.7
		s-0.3-0.7-0.7-0.7H27.7V54.4h13.2c0.4,0,0.7-0.3,0.7-0.7s-0.3-0.7-0.7-0.7H26.4v52.6h23.8v-18h13.3L63.5,86.5L63.5,86.5z"/>
	<path class="st0" d="M49.5,53.8c0,0.4,0.3,0.7,0.7,0.7h17.4v19.1h-9.8c-0.4,0-0.7,0.3-0.7,0.7s0.3,0.7,0.7,0.7h19.8v-1.3h-8.7V54.4
		h16.7v32.1H76c-0.4,0-0.7,0.3-0.7,0.7s0.3,0.7,0.7,0.7h9.6v16.7H61.7c-0.4,0-0.7,0.3-0.7,0.7s0.3,0.7,0.7,0.7h25.2V53.2H50.2
		C49.8,53.2,49.5,53.4,49.5,53.8z"/>
</g>
</svg>
