<?xml version="1.0" encoding="utf-8"?>
<!-- Generator: Adobe Illustrator 26.0.0, SVG Export Plug-In . SVG Version: 6.00 Build 0)  -->
<svg version="1.1" id="Layer_1" xmlns="http://www.w3.org/2000/svg" xmlns:xlink="http://www.w3.org/1999/xlink" x="0px" y="0px"
	 viewBox="0 0 150.4 112.4" style="enable-background:new 0 0 150.4 112.4;" xml:space="preserve">
<style type="text/css">
	.st0{fill:none;stroke:#2EA1A6;stroke-width:2;stroke-linecap:round;stroke-miterlimit:10;}
	.st1{fill:none;stroke:#2EA1A6;stroke-width:1.5;stroke-linecap:round;stroke-miterlimit:10;}
	.st2{fill:#2EA1A6;}
</style>
<g>
	<path class="st0" d="M68.6,3.1c0,8.5,6.9,15.4,15.4,15.4s15.4-6.9,15.4-15.4C99.3,3.1,68.6,3.1,68.6,3.1z"/>
	<path class="st0" d="M64.8,96.2c8.5,0,15.4-6,15.4-13.5s-6.9-13.5-15.4-13.5"/>
	<line class="st0" x1="64.8" y1="69.2" x2="56.5" y2="69.2"/>
	<path class="st0" d="M68.6,3.1L31,26.3L40.1,44l12.2-6.7c4.9,9,5.4,20,4.2,31.9H34v24.2c0,1.5,1.2,2.8,2.8,2.8h28"/>
	<line class="st0" x1="38.2" y1="21.8" x2="47.3" y2="40.1"/>
	<path class="st0" d="M99.8,3.1l37.6,23.2L128.3,44l-12.2-6.7c-3.1,9.3-2.8,12.7-3.5,24.2"/>
	<line class="st0" x1="130.1" y1="21.8" x2="121.1" y2="40.1"/>
	<path class="st0" d="M34,73.8H23.5c-1.4,0-2.6,1.2-2.6,2.6v13c0,1.4,1.2,2.6,2.6,2.6H34L34,73.8L34,73.8z"/>
	<path class="st1" d="M28.7,80.7h-1.8c-0.6,0-1.1-0.5-1.1-1.1V79c0-0.6,0.5-1.1,1.1-1.1h1.8c0.6,0,1.1,0.5,1.1,1.1v0.6
		C29.8,80.2,29.3,80.7,28.7,80.7z"/>
	<path class="st1" d="M28.7,87.6h-1.8c-0.6,0-1.1-0.5-1.1-1.1v-0.6c0-0.6,0.5-1.1,1.1-1.1h1.8c0.6,0,1.1,0.5,1.1,1.1v0.6
		C29.8,87.1,29.3,87.6,28.7,87.6z"/>
	<circle class="st2" cx="69.5" cy="83.5" r="3"/>
	<circle class="st2" cx="52.7" cy="77.9" r="2.2"/>
	<circle class="st2" cx="49.5" cy="88.4" r="2.2"/>
	<line class="st1" x1="69.5" y1="83.5" x2="43.2" y2="83.5"/>
	<line class="st0" x1="100.6" y1="86.2" x2="79.6" y2="86.2"/>
	<polyline class="st1" points="63.3,83.5 58.9,77.9 52.7,77.9 	"/>
	<polyline class="st1" points="58.4,83.5 54.8,88.4 49.5,88.4 	"/>
	<polyline class="st1" points="44.2,80.8 41.5,83.5 44.2,86.2 	"/>
	<path class="st0" d="M124.3,95.2h-17.5c-3.4,0-6.2-2.8-6.2-6.2V63.7c0-1.2,1-2.1,2.1-2.1h25.6c1.2,0,2.1,1,2.1,2.1V89
		C130.4,92.4,127.7,95.2,124.3,95.2z"/>
	<path class="st0" d="M133.7,88.8h-3.2V68.2h7.3c1.2,0,2.1,1,2.1,2.1v12.2C139.9,86,137.1,88.8,133.7,88.8z"/>
	<line class="st0" x1="21.6" y1="96.6" x2="145.6" y2="96.6"/>
	<path class="st0" d="M116.3,72.2l1.4,4.2c0.1,0.3,0.4,0.5,0.7,0.5h4.4c0.8,0,1.1,1,0.5,1.4l-3.6,2.6c-0.3,0.2-0.4,0.6-0.3,0.9
		l1.4,4.2c0.2,0.7-0.6,1.3-1.2,0.9l-3.6-2.6c-0.3-0.2-0.6-0.2-0.9,0l-3.6,2.6c-0.6,0.4-1.4-0.2-1.2-0.9l1.4-4.2
		c0.1-0.3,0-0.7-0.3-0.9l-3.6-2.6c-0.6-0.4-0.3-1.4,0.5-1.4h4.4c0.3,0,0.6-0.2,0.7-0.5l1.4-4.2C115,71.5,116,71.5,116.3,72.2z"/>
	<path class="st0" d="M85.1,42.5l1.4,4.2c0.1,0.3,0.4,0.5,0.7,0.5h4.4c0.8,0,1.1,1,0.5,1.4l-3.6,2.6c-0.3,0.2-0.4,0.5-0.3,0.9
		l1.4,4.2c0.2,0.7-0.6,1.3-1.2,0.9l-3.6-2.6c-0.3-0.2-0.6-0.2-0.9,0l-3.6,2.6c-0.6,0.4-1.4-0.2-1.2-0.9l1.4-4.2
		c0.1-0.3,0-0.7-0.3-0.9l-3.6-2.6c-0.6-0.4-0.3-1.4,0.5-1.4h4.4c0.3,0,0.6-0.2,0.7-0.5l1.4-4.2C83.8,41.8,84.8,41.8,85.1,42.5z"/>
	<circle class="st0" cx="84.3" cy="49.6" r="15.4"/>
	<line class="st0" x1="68.9" y1="103.4" x2="68.9" y2="111.4"/>
	<line class="st0" x1="72.9" y1="107.4" x2="64.9" y2="107.4"/>
	<line class="st0" x1="141.4" y1="52" x2="141.4" y2="60"/>
	<line class="st0" x1="145.4" y1="56" x2="137.4" y2="56"/>
	<line class="st0" x1="145.4" y1="1" x2="145.4" y2="9"/>
	<line class="st0" x1="149.4" y1="5" x2="141.4" y2="5"/>
	<line class="st0" x1="16.9" y1="5" x2="16.9" y2="13"/>
	<line class="st0" x1="21" y1="9" x2="12.9" y2="9"/>
	<line class="st0" x1="9" y1="96.2" x2="1" y2="96.2"/>
</g>
</svg>
