<?xml version="1.0" encoding="utf-8"?>
<!-- Generator: Adobe Illustrator 26.0.0, SVG Export Plug-In . SVG Version: 6.00 Build 0)  -->
<svg version="1.1" id="Layer_1" xmlns="http://www.w3.org/2000/svg" xmlns:xlink="http://www.w3.org/1999/xlink" x="0px" y="0px"
	 viewBox="0 0 101.1 107.4" style="enable-background:new 0 0 101.1 107.4;" xml:space="preserve">
<style type="text/css">
	.st0{fill:none;stroke:#D32C5C;stroke-width:2;stroke-linecap:round;stroke-miterlimit:10;}
</style>
<g>
	<polygon class="st0" points="17.2,25.8 1,25.8 1,106.4 65.8,106.4 65.8,94.7 17.2,94.7 	"/>
	<rect x="65.8" y="83" class="st0" width="15.8" height="11.7"/>
	<polyline class="st0" points="17.2,25.8 35.7,25.8 35.7,12.7 17.2,12.7 17.2,19.2 	"/>
	<polygon class="st0" points="35.7,83 35.7,25.8 17.2,25.8 17.2,94.7 65.8,94.7 65.8,83 	"/>
	<polyline class="st0" points="35.7,12.7 81.6,12.7 81.6,83 100.1,83 100.1,1 35.7,1 35.7,6.9 	"/>
	<polygon class="st0" points="35.7,12.7 35.7,25.8 65.8,25.8 65.8,83 81.6,83 81.6,12.7 	"/>
	<rect x="35.7" y="25.8" class="st0" width="30.2" height="57.2"/>
</g>
</svg>
