<?xml version="1.0" encoding="utf-8"?>
<!-- Generator: Adobe Illustrator 26.0.0, SVG Export Plug-In . SVG Version: 6.00 Build 0)  -->
<svg version="1.1" id="Layer_1" xmlns="http://www.w3.org/2000/svg" xmlns:xlink="http://www.w3.org/1999/xlink" x="0px" y="0px"
	 viewBox="0 0 130.8 89.4" style="enable-background:new 0 0 130.8 89.4;" xml:space="preserve">
<style type="text/css">
	.st0{fill:none;stroke:#D32C5C;stroke-width:2;stroke-linecap:round;stroke-miterlimit:10;}
</style>
<path class="st0" d="M121.6,42.3c0,0.8,0,1.6,0,2.4c0,10.8,0,21.6,0,32.4c0,1.3,0.4,1.9,1.7,2.3c1.8,0.5,3.5,1.3,5.3,1.8
	c1,0.3,1.3,0.8,1.3,1.8c-0.1,1.8,0,3.5,0,5.3c-5,0-9.9,0-15,0c0-9.2,0-18.3,0-27.6c-2.5,0-4.8,0-7.3,0c0,2,0,8.7,0,10.7
	c-28.1,0-56,0-84.2,0c0-2,0-8.7,0-10.8c-2.5,0-4.7,0-7.2,0c0,9.2,0,18.4,0,27.6c-5.1,0-10,0-15,0c0-2.1,0-4.1,0-6.2
	c0-0.3,0.6-0.8,1-0.9c2-0.8,4.1-1.4,6.1-2.2c0.5-0.2,1-0.9,1-1.4c0-11.6,0-23.1,0-34.6c0-0.2-0.1-0.4-0.1-0.7
	C9,42.1,8.8,42.1,8.6,42c-4.4-0.2-6.9-2.4-7.3-6.9C0.9,32.5,1,29.7,1,26.9c0-5.7-0.1-11.4,0-17.1c0-1.7,0.3-3.4,0.9-5
	C3,2.4,5,1,7.9,1c38.3,0,76.7,0,115,0c3.4,0,6,2.3,6.7,5.9c0.1,0.3,0.1,0.6,0.1,0.8c0,9.2,0.2,18.4-0.1,27.6
	c-0.1,4.4-2.8,6.5-7.2,6.8C122.2,42.2,122,42.2,121.6,42.3z M105.4,31.3c-26.8,0-53.3,0-79.9,0c0,11.2,0,22.2,0,33.4
	c26.7,0,53.3,0,79.9,0C105.4,53.5,105.4,42.4,105.4,31.3z M118.2,14.1c0.9,0,1.8,0,2.7,0c5.2,0.1,5.3,0.2,5.2-5.4
	c0-2-0.7-2.7-2.7-2.7c-2.6,0-5.2,0-7.8,0c-5.1-0.1-5.3-0.3-5.2,5.5c0,0.1,0,0.1,0,0.2c0.1,1.7,0.8,2.5,2.5,2.5
	C114.7,14.1,116.5,14.1,118.2,14.1z M23.2,42.3c-2.4,0-4.7,0-7.1,0c0,4.8,0,9.4,0,14.1c2.4,0,4.7,0,7.1,0
	C23.2,51.7,23.2,47,23.2,42.3z M114.6,56.5c0-4.9,0-9.6,0-14.3c-2.4,0-4.7,0-7.1,0c0,4.5,0,8.9,0.1,13.3c0,0.3,0.6,0.9,1,0.9
	C110.5,56.6,112.5,56.5,114.6,56.5z M6.1,14.9c0,5.9,0,11.6,0,17.4c1.5,0,2.9,0,4.3,0c0-5.9,0-11.6,0-17.4
	C8.9,14.9,7.6,14.9,6.1,14.9z M13.9,14.9c0,5.9,0,11.6,0,17.4c1.5,0,2.9,0,4.3,0c0-5.9,0-11.5,0-17.4C16.7,14.9,15.3,14.9,13.9,14.9
	z M18.2,10.8c-0.9-0.9-1.5-1.8-2.1-1.9c-1.2-0.2-1.8,0.9-1.6,1.9c0.1,0.7,1,1.3,1.5,1.9C16.6,12.2,17.3,11.6,18.2,10.8z M6.1,10.7
	c0.9,0.9,1.5,1.5,2.1,2c0.6-0.6,1.4-1.1,1.6-1.8c0.3-1-0.2-2.1-1.4-2C7.7,9,7.1,9.9,6.1,10.7z"/>
</svg>
