<?xml version="1.0" encoding="utf-8"?>
<!-- Generator: Adobe Illustrator 26.0.0, SVG Export Plug-In . SVG Version: 6.00 Build 0)  -->
<svg version="1.1" id="Layer_1" xmlns="http://www.w3.org/2000/svg" xmlns:xlink="http://www.w3.org/1999/xlink" x="0px" y="0px"
	 viewBox="0 0 105.7 90.8" style="enable-background:new 0 0 105.7 90.8;" xml:space="preserve">
<style type="text/css">
	.st0{fill:#D32C5C;}
</style>
<g id="Degital_grahpic_3">
	<g>
		<path class="st0" d="M99.3,0H6.4C2.9,0,0,2.9,0,6.4v58.5c0,2,1.6,3.6,3.6,3.6h40.5v6.9c0,4.2-2.1,8-5.6,10.3l-0.2,0.1
			c-0.5,0.4-0.9,1-1.1,1.7c-0.2,0.7,0,1.5,0.4,2.1c0.5,0.8,1.4,1.2,2.3,1.2h25c0.8,0,1.4-0.3,1.9-0.8s0.8-1.2,0.8-1.9
			c0-0.9-0.4-1.7-1.2-2.2l-0.1-0.1c-3.7-2.3-5.9-6.4-5.9-10.7v-6.6h27.3c0.5,0,0.8-0.4,0.8-0.8s-0.4-0.8-0.8-0.8H3.6
			c-1.1,0-2-0.9-2-1.9V6.4c0-2.6,2.1-4.7,4.7-4.7h92.9c2.6,0,4.7,2.1,4.7,4.7v58.5c0,1.1-0.9,1.9-1.9,1.9h-8.5
			c-0.5,0-0.8,0.4-0.8,0.8s0.4,0.8,0.8,0.8h8.5c2,0,3.6-1.6,3.6-3.6V6.4C105.7,2.9,102.8,0,99.3,0z M45.8,68.6H59v6.6
			c0,4.9,2.5,9.5,6.6,12.1c0.5,0.3,0.6,0.9,0.3,1.4c-0.2,0.3-0.5,0.5-0.9,0.5l0,0H40c-0.5,0-0.9-0.3-1-0.8s0-0.9,0.4-1.2
			c4-2.6,6.4-7,6.4-11.7L45.8,68.6L45.8,68.6z"/>
	</g>
	<g>
		<path class="st0" d="M78.2,17.6l-8.9-9c-0.4-0.4-0.8-0.7-1.4-0.8c-0.8-0.3-1.6-0.3-2.4,0c-0.5,0.2-1,0.5-1.4,0.8l-9,9
			c-1,1-1.3,2.4-0.9,3.7l1.3,4l1.6-0.5l-1.3-4c-0.2-0.7-0.1-1.5,0.5-2l9.5-9.5v12.4l-0.4,0.1c-2,0.7-3.1,2.9-2.5,4.9
			c0.3,1,1,1.8,1.9,2.2c0.9,0.5,2,0.5,3,0.2s1.8-1,2.2-1.9s0.5-2,0.2-3c-0.4-1.2-1.3-2.1-2.4-2.5l-0.4-0.1V9.2l9.5,9.5
			c0.5,0.5,0.7,1.3,0.5,2l-5.3,16H61.2L58.7,29c-0.1-0.2-0.2-0.4-0.4-0.5s-0.4-0.1-0.6,0c-0.2,0.1-0.4,0.2-0.5,0.4
			c-0.1,0.2-0.1,0.4,0,0.6l2.4,7.3L59.1,37c-2,0.9-2.8,3.2-2,5.1c0.6,1.4,2,2.3,3.5,2.3h0.7V51c0,2,1.6,3.6,3.6,3.6h3.5
			c2,0,3.6-1.6,3.6-3.6v-6.6h0.7c1.1,0,2-0.4,2.7-1.1c0.7-0.7,1.1-1.7,1.1-2.7c0-1.5-0.9-2.9-2.3-3.5l-0.5-0.2l5.2-15.6
			C79.6,20,79.2,18.5,78.2,17.6z M68.9,25.4c0,1.2-1,2.2-2.2,2.2c-0.6,0-1.1-0.2-1.6-0.6c-0.4-0.4-0.6-1-0.6-1.6s0.2-1.1,0.6-1.6
			c0.4-0.4,1-0.6,1.6-0.6l0,0C67.9,23.2,68.9,24.2,68.9,25.4z M70.4,51.1c0,1.1-0.9,2-1.9,2H65c-1.1,0-2-0.9-2-2v-6.6h7.4V51.1z
			 M74.3,39.1c0.4,0.4,0.6,1,0.6,1.5l0,0c0,1.2-1,2.2-2.2,2.2H60.6c-1.2,0-2.2-1.1-2.1-2.3c0-1.1,1-2.1,2.1-2.1h12.2
			C73.4,38.4,73.9,38.7,74.3,39.1z"/>
		<path class="st0" d="M65.9,6.5h1.7C67,6.4,66.4,6.4,65.9,6.5z"/>
	</g>
	<g>
		<path class="st0" d="M46.2,26.3h-2.9v-8.6l0.4-0.1c2-0.6,3.3-2.4,3.3-4.4c0-1.2-0.5-2.4-1.3-3.2c-0.9-0.9-2-1.3-3.2-1.3
			s-2.4,0.5-3.2,1.3c-0.9,0.9-1.3,2-1.3,3.2c0,2,1.4,3.8,3.3,4.4l0.4,0.1v8.6h-2.9c-0.5,0-0.8,0.4-0.8,0.8V30h-0.5
			c-11,0.1-19.9,9.1-19.9,20.1v2.2c0,0.5,0.4,0.8,0.8,0.8s0.8-0.4,0.8-0.8v-2.2c0-10,8.2-18.3,18.2-18.4H38v2.9
			c0,0.5,0.4,0.8,0.8,0.8h2.9v9.2l-0.4,0.1c-2.4,0.7-3.8,3.2-3.1,5.6s3.2,3.8,5.6,3.1c1.2-0.3,2.1-1.1,2.7-2.2
			c0.6-1.1,0.7-2.3,0.4-3.5c-0.4-1.5-1.6-2.7-3.2-3.2l-0.4-0.1v-9.2h2.9c0.5,0,0.8-0.4,0.8-0.8V27C47,26.7,46.7,26.3,46.2,26.3z
			 M39.6,13.2c0-1.6,1.3-2.9,2.9-2.9s2.9,1.3,2.9,2.9s-1.3,2.9-2.9,2.9S39.6,14.8,39.6,13.2z M45.4,49.1c0,1.6-1.3,2.9-2.9,2.9
			s-2.9-1.3-2.9-2.9s1.3-2.9,2.9-2.9S45.4,47.6,45.4,49.1z M45.4,33.8h-5.8V28h5.8V33.8z"/>
	</g>
	<g>
		<path class="st0" d="M98.4,3.7h-91c-2,0-3.6,1.6-3.6,3.6v53.8H102V7.3C102,5.3,100.4,3.7,98.4,3.7z M100.3,59.4H5.4V7.3
			c0-1.1,0.9-1.9,2-1.9h91c1.1,0,1.9,0.9,1.9,1.9V59.4z"/>
		<path class="st0" d="M65.9,6.5h1.7C67,6.4,66.4,6.4,65.9,6.5z M65.9,6.5h1.7C67,6.4,66.4,6.4,65.9,6.5z M65.9,6.5h1.7
			C67,6.4,66.4,6.4,65.9,6.5z M65.9,6.5h1.7C67,6.4,66.4,6.4,65.9,6.5z M65.9,6.5h1.7C67,6.4,66.4,6.4,65.9,6.5z M65.9,6.5h1.7
			C67,6.4,66.4,6.4,65.9,6.5z M65.9,6.5h1.7C67,6.4,66.4,6.4,65.9,6.5z M65.9,6.5h1.7C67,6.4,66.4,6.4,65.9,6.5z M65.9,6.5h1.7
			C67,6.4,66.4,6.4,65.9,6.5z M65.9,6.5h1.7C67,6.4,66.4,6.4,65.9,6.5z M65.9,6.5h1.7C67,6.4,66.4,6.4,65.9,6.5z M65.9,6.5h1.7
			C67,6.4,66.4,6.4,65.9,6.5z M65.9,6.5h1.7C67,6.4,66.4,6.4,65.9,6.5z M65.9,6.5h1.7C67,6.4,66.4,6.4,65.9,6.5z M65.9,6.5h1.7
			C67,6.4,66.4,6.4,65.9,6.5z M65.9,6.5h1.7C67,6.4,66.4,6.4,65.9,6.5z M65.9,6.5h1.7C67,6.4,66.4,6.4,65.9,6.5z M65.9,6.5h1.7
			C67,6.4,66.4,6.4,65.9,6.5z M65.9,6.5h1.7C67,6.4,66.4,6.4,65.9,6.5z"/>
	</g>
</g>
</svg>
