<?xml version="1.0" encoding="utf-8"?>
<!-- Generator: Adobe Illustrator 26.0.0, SVG Export Plug-In . SVG Version: 6.00 Build 0)  -->
<svg version="1.1" id="Layer_1" xmlns="http://www.w3.org/2000/svg" xmlns:xlink="http://www.w3.org/1999/xlink" x="0px" y="0px"
	 viewBox="0 0 136.4 114.7" style="enable-background:new 0 0 136.4 114.7;" xml:space="preserve">
<style type="text/css">
	.st0{fill:#D32C5C;}
</style>
<g>
	<g>
		<path class="st0" d="M106.9,23H92.2c-0.7,0-1.5,0.3-1.5,1.1c0,0.3,0,0.8,1.5,0.8h14.7v14.2H66.1c-0.6,0-1,0.4-1,1l-0.2,60.7H50.4
			l0.6-1.3c0.3-0.7,0.5-1.4,0.5-2.1V61.8c0-2.5-2.1-4.6-4.6-4.6H23.4c-2.5,0-4.6,2.1-4.6,4.6v35.7c0,0.7,0.2,1.4,0.5,2.1l0.6,1.3
			h-8.7l0.1-1V41.1c0-0.8,0.5-1.6,1.3-1.9l91.5-34.8c0.6-0.2,1.3-0.1,1.9,0.2c0.5,0.4,0.9,1,0.9,1.7v8.8H94.3
			c-0.7,0-1.5,0.3-1.5,1.1c0,0.3,0,0.8,1.5,0.8H107h2h4.5c1.5,0,1.5-0.5,1.5-0.8c0-0.8-0.8-1.1-1.5-1.1H109V0.3
			c0-0.1-0.1-0.2-0.1-0.2s-0.2-0.1-0.3,0L8.9,38c-0.1,0-0.2,0.2-0.2,0.3v61.5l0.1,1h-1H4.9c-2.7,0-4.9,2.2-4.9,4.9v4.1
			c0,2.7,2.2,4.9,4.9,4.9h126.7c1.3,0,2.6-0.5,3.5-1.5c0.9-0.9,1.4-2.2,1.4-3.4v-4.1c0-2.7-2.2-4.9-4.9-4.9h-2.9V79.9
			c0-0.3-0.3-0.6-0.6-0.6H127c-0.3,0-0.6,0.3-0.6,0.6v20.9h-60l0.5-1.2c0.1-0.1,0.1-0.2,0.1-0.4V43.3c0-1.5,1.2-2.7,2.7-2.7h54.2
			c1.5,0,2.7,1.2,2.7,2.7V74c0,0.6,0.4,1,1,1c0.6,0,1-0.4,1-1V40.1c0-0.5-0.4-1-1-1h-18.7V24.9h2.4c1.5,0,1.5-0.5,1.5-0.8
			c0-0.8-0.8-1.1-1.5-1.1h-2.4H106.9L106.9,23z M48.5,100.7l-0.2,0.1H22.1l-0.2-0.1c-1.2-0.6-2-1.9-2-3.3V61.8c0-2,1.6-3.6,3.6-3.6
			H47c2,0,3.6,1.6,3.6,3.6v35.6C50.6,98.8,49.8,100.1,48.5,100.7z M134.4,109.8c0,0.7-0.3,1.4-0.8,2s-1.2,0.8-2,0.8H4.9
			c-1.5,0-2.9-1.3-2.9-2.9v-4.1c0-1.6,1.3-2.9,2.9-2.9h126.7c1.6,0,2.9,1.3,2.9,2.9L134.4,109.8L134.4,109.8z"/>
	</g>
	<g>
		<path class="st0" d="M46,68.1c0,0.3,0,0.8-1.5,0.8H25.4c-1.5,0-1.5-0.5-1.5-0.8c0-0.8,0.8-1.1,1.5-1.1h19.2
			C45.2,67,46,67.3,46,68.1z"/>
	</g>
	<g>
		<path class="st0" d="M46,76.4c0,0.3,0,0.8-1.5,0.8H25.4c-1.5,0-1.5-0.5-1.5-0.8c0-0.8,0.8-1.1,1.5-1.1h19.2
			C45.2,75.3,46,75.6,46,76.4z"/>
	</g>
	<g>
		<path class="st0" d="M46,84.3c0,0.3,0,0.8-1.5,0.8H25.4c-1.5,0-1.5-0.5-1.5-0.8c0-0.8,0.8-1.1,1.5-1.1h19.2
			C45.2,83.2,46,83.4,46,84.3z"/>
	</g>
	<g>
		<path class="st0" d="M46,91.8c0,0.3,0,0.8-1.5,0.8H25.4c-1.5,0-1.5-0.5-1.5-0.8c0-0.8,0.8-1.1,1.5-1.1h19.2
			C45.2,90.7,46,91,46,91.8z"/>
	</g>
</g>
</svg>
