<?xml version="1.0" encoding="utf-8"?>
<!-- Generator: Adobe Illustrator 26.0.0, SVG Export Plug-In . SVG Version: 6.00 Build 0)  -->
<svg version="1.1" id="Layer_1" xmlns="http://www.w3.org/2000/svg" xmlns:xlink="http://www.w3.org/1999/xlink" x="0px" y="0px"
	 viewBox="0 0 64.84 50.02" style="enable-background:new 0 0 64.84 50.02;" xml:space="preserve">
<style type="text/css">
	.st0{fill:#59142B;}
	.st1{fill:#D83A6F;}
	.st2{fill:url(#SVGID_1_);}
	.st3{fill:#FFFFFF;}
	.st4{fill:url(#SVGID_00000073715982591048261850000007601867367647616148_);}
	.st5{fill:url(#SVGID_00000160900864225274250650000009009739414921393027_);}
	.st6{fill:url(#SVGID_00000088813048343304464670000007273550178899577227_);}
	.st7{fill:url(#SVGID_00000139274226560926014840000011296975354156200101_);}
	.st8{fill:url(#SVGID_00000078026207734748669640000000328999654968837551_);}
	.st9{fill:url(#SVGID_00000096752401335581819350000008180314018435673510_);}
	.st10{fill:url(#SVGID_00000020376187344586900210000018414563121591872641_);}
	.st11{fill:url(#SVGID_00000093863973563972564830000017377018760004850612_);}
	.st12{fill:url(#SVGID_00000023246237026510915090000015556127090016430472_);}
	.st13{fill:url(#SVGID_00000047029762497263103380000008010031576872562603_);}
	.st14{fill:url(#SVGID_00000027569362431003428800000002012596598608621237_);}
	.st15{fill:url(#SVGID_00000095303802095416088580000003119603229819060379_);}
	.st16{fill:url(#SVGID_00000106120871851435535770000006655254305977534123_);}
	.st17{fill:url(#SVGID_00000106854835611819682230000005269102916992975011_);}
	.st18{fill:url(#SVGID_00000163043058195000514640000011664180025713382812_);}
	.st19{fill:url(#SVGID_00000134942963660710988720000002946125946857759896_);}
	.st20{fill:url(#SVGID_00000127735687654015868960000013173024648214456220_);}
	.st21{fill:url(#SVGID_00000003075082690613752940000003402118557833347990_);}
	.st22{fill:#EDFDFC;}
	.st23{fill:#F7A491;}
	.st24{fill:url(#SVGID_00000105409484320796302810000013266574664040038295_);}
	.st25{fill:#F47458;}
	.st26{fill:#F8A492;}
	.st27{fill:#D32C5C;}
	.st28{fill:#FE875E;}
	.st29{fill:url(#SVGID_00000114064079517658899550000015268588573793952426_);}
	.st30{fill:#002A24;}
	.st31{fill:url(#SVGID_00000095302517672422869260000000505891351064475528_);}
	.st32{fill:url(#SVGID_00000030449012768913140940000007751311460218741656_);}
</style>
<g>
	<g>
		<path class="st0" d="M64.62,49.6H0.21c-0.11,0-0.21,0.09-0.22,0.2c-0.01,0.12,0.09,0.23,0.21,0.23h64.42
			c0.12,0,0.21-0.09,0.21-0.21l0,0C64.84,49.7,64.74,49.6,64.62,49.6z"/>
	</g>
	<g>
		<circle class="st1" cx="22.57" cy="5.82" r="3.47"/>
		<linearGradient id="SVGID_1_" gradientUnits="userSpaceOnUse" x1="22.9033" y1="-0.7813" x2="22.473" y2="7.873">
			<stop  offset="0" style="stop-color:#D32C5C"/>
			<stop  offset="1" style="stop-color:#AB234C"/>
		</linearGradient>
		<path class="st2" d="M23.88,8.94c-1.72,0.72-3.7-0.09-4.43-1.81c-0.72-1.72,0.09-3.7,1.81-4.43c1.72-0.72,3.7,0.09,4.43,1.81
			C26.41,6.23,25.6,8.22,23.88,8.94z"/>
		
			<ellipse transform="matrix(0.5166 -0.8562 0.8562 0.5166 5.9174 22.1551)" class="st3" cx="22.58" cy="5.84" rx="2.76" ry="2.76"/>
		<path class="st3" d="M23.59,8.24c-1.33,0.56-2.87-0.07-3.43-1.4c-0.56-1.33,0.07-2.87,1.4-3.43c1.33-0.56,2.87,0.07,3.43,1.4
			C25.55,6.14,24.92,7.68,23.59,8.24z"/>
		<g>
			
				<linearGradient id="SVGID_00000052799690968601138430000011487781391177546668_" gradientUnits="userSpaceOnUse" x1="19.9146" y1="6.7894" x2="20.6262" y2="6.7894">
				<stop  offset="0" style="stop-color:#D32C5C"/>
				<stop  offset="1" style="stop-color:#AB234C"/>
			</linearGradient>
			<path style="fill:url(#SVGID_00000052799690968601138430000011487781391177546668_);" d="M20.43,6.57L20,6.75
				c-0.07,0.03-0.1,0.11-0.07,0.18c0.03,0.07,0.11,0.1,0.18,0.07l0.43-0.18c0.07-0.03,0.1-0.11,0.07-0.18
				C20.59,6.57,20.5,6.54,20.43,6.57z"/>
			
				<linearGradient id="SVGID_00000115480399121806514650000012806280443067862697_" gradientUnits="userSpaceOnUse" x1="23.3115" y1="8.1285" x2="23.7719" y2="8.1285">
				<stop  offset="0" style="stop-color:#D32C5C"/>
				<stop  offset="1" style="stop-color:#AB234C"/>
			</linearGradient>
			<path style="fill:url(#SVGID_00000115480399121806514650000012806280443067862697_);" d="M23.4,7.78
				c-0.07,0.03-0.1,0.11-0.07,0.18L23.5,8.4c0.03,0.07,0.11,0.1,0.18,0.07c0.07-0.03,0.1-0.11,0.07-0.18l-0.18-0.43
				C23.55,7.79,23.47,7.75,23.4,7.78z"/>
			
				<linearGradient id="SVGID_00000074434713410180496600000006523835781566388904_" gradientUnits="userSpaceOnUse" x1="24.525" y1="4.8571" x2="25.2365" y2="4.8571">
				<stop  offset="0" style="stop-color:#D32C5C"/>
				<stop  offset="1" style="stop-color:#AB234C"/>
			</linearGradient>
			<path style="fill:url(#SVGID_00000074434713410180496600000006523835781566388904_);" d="M25.04,4.64l-0.43,0.18
				c-0.07,0.03-0.1,0.11-0.07,0.18c0.03,0.07,0.11,0.1,0.18,0.07l0.43-0.18c0.07-0.03,0.1-0.11,0.07-0.18
				C25.2,4.64,25.11,4.61,25.04,4.64z"/>
			
				<linearGradient id="SVGID_00000082336364019063492890000015912274241600352144_" gradientUnits="userSpaceOnUse" x1="21.3792" y1="3.5181" x2="21.8397" y2="3.5181">
				<stop  offset="0" style="stop-color:#D32C5C"/>
				<stop  offset="1" style="stop-color:#AB234C"/>
			</linearGradient>
			<path style="fill:url(#SVGID_00000082336364019063492890000015912274241600352144_);" d="M21.46,3.17
				c-0.07,0.03-0.1,0.11-0.07,0.18l0.18,0.43c0.03,0.07,0.11,0.1,0.18,0.07c0.07-0.03,0.1-0.11,0.07-0.18l-0.18-0.43
				C21.62,3.18,21.54,3.14,21.46,3.17z"/>
		</g>
		<g>
			
				<linearGradient id="SVGID_00000080170878881174203540000000898184267718079872_" gradientUnits="userSpaceOnUse" x1="22.4359" y1="1.7514" x2="23.2665" y2="1.7514">
				<stop  offset="0" style="stop-color:#D32C5C"/>
				<stop  offset="1" style="stop-color:#AB234C"/>
			</linearGradient>
			<path style="fill:url(#SVGID_00000080170878881174203540000000898184267718079872_);" d="M22.44,2l0.04-0.55
				c0-0.04,0.04-0.08,0.09-0.08l0.63,0.04c0.04,0,0.08,0.04,0.08,0.09l-0.04,0.55c0,0.05-0.04,0.08-0.09,0.08l-0.63-0.04
				C22.47,2.08,22.43,2.04,22.44,2z"/>
		</g>
		<g>
			
				<linearGradient id="SVGID_00000041292889045192859090000011757754663853362314_" gradientUnits="userSpaceOnUse" x1="19.0213" y1="3.1638" x2="20.0118" y2="3.1638">
				<stop  offset="0" style="stop-color:#D32C5C"/>
				<stop  offset="1" style="stop-color:#AB234C"/>
			</linearGradient>
			<path style="fill:url(#SVGID_00000041292889045192859090000011757754663853362314_);" d="M19.98,3.04l-0.42-0.36
				c-0.03-0.03-0.09-0.03-0.12,0.01l-0.41,0.48c-0.03,0.03-0.03,0.09,0.01,0.12l0.42,0.36c0.03,0.03,0.09,0.03,0.12-0.01l0.41-0.48
				C20.02,3.12,20.02,3.07,19.98,3.04z"/>
		</g>
		<g>
			
				<linearGradient id="SVGID_00000149339790903962795310000014084859721610256524_" gradientUnits="userSpaceOnUse" x1="20.3938" y1="1.7305" x2="21.4501" y2="1.7305">
				<stop  offset="0" style="stop-color:#D32C5C"/>
				<stop  offset="1" style="stop-color:#AB234C"/>
			</linearGradient>
			<path style="fill:url(#SVGID_00000149339790903962795310000014084859721610256524_);" d="M20.66,2.14c-0.04,0.02-0.09,0-0.1-0.04
				L20.4,1.73c-0.02-0.04,0-0.09,0.04-0.1l0.74-0.31c0.04-0.02,0.09,0,0.1,0.04l0.15,0.36c0.02,0.04,0,0.09-0.04,0.1L20.66,2.14z"/>
			
				<linearGradient id="SVGID_00000045604358631057630550000014401790916951335328_" gradientUnits="userSpaceOnUse" x1="19.7118" y1="1.4075" x2="21.8614" y2="1.4075">
				<stop  offset="0" style="stop-color:#D32C5C"/>
				<stop  offset="1" style="stop-color:#AB234C"/>
			</linearGradient>
			<path style="fill:url(#SVGID_00000045604358631057630550000014401790916951335328_);" d="M20.85,2.27
				c-0.36,0.03-0.72-0.18-0.87-0.53c-0.19-0.44,0.02-0.95,0.47-1.14c0.44-0.19,0.95,0.02,1.14,0.47c0.15,0.35,0.04,0.75-0.23,0.99
				l0.08,0.2c0.38-0.29,0.53-0.81,0.34-1.27c-0.23-0.55-0.86-0.8-1.41-0.58c-0.55,0.23-0.8,0.86-0.58,1.41
				c0.19,0.46,0.67,0.71,1.14,0.65L20.85,2.27z"/>
			
				<linearGradient id="SVGID_00000072992343719886515760000001167857395029607560_" gradientUnits="userSpaceOnUse" x1="20.8368" y1="2.2778" x2="21.4686" y2="2.2778">
				<stop  offset="0" style="stop-color:#D32C5C"/>
				<stop  offset="1" style="stop-color:#AB234C"/>
			</linearGradient>
			<path style="fill:url(#SVGID_00000072992343719886515760000001167857395029607560_);" d="M21.21,2.56
				c0.09-0.04,0.17-0.07,0.26-0.1l-0.22-0.53L20.84,2.1l0.22,0.52C21.1,2.6,21.15,2.58,21.21,2.56z"/>
		</g>
		<g>
			
				<linearGradient id="SVGID_00000121261391288486797750000006373387150959018886_" gradientUnits="userSpaceOnUse" x1="22.3205" y1="5.8181" x2="22.83" y2="5.8181">
				<stop  offset="0" style="stop-color:#D32C5C"/>
				<stop  offset="1" style="stop-color:#AB234C"/>
			</linearGradient>
			<path style="fill:url(#SVGID_00000121261391288486797750000006373387150959018886_);" d="M22.81,5.72
				C22.86,5.85,22.8,6,22.67,6.05c-0.13,0.05-0.28-0.01-0.33-0.14c-0.05-0.13,0.01-0.28,0.14-0.33C22.61,5.53,22.76,5.59,22.81,5.72
				z"/>
			
				<linearGradient id="SVGID_00000132054185073168750040000010247403146880277376_" gradientUnits="userSpaceOnUse" x1="22.4731" y1="4.8263" x2="22.8462" y2="4.8263">
				<stop  offset="0" style="stop-color:#D32C5C"/>
				<stop  offset="1" style="stop-color:#AB234C"/>
			</linearGradient>
			<path style="fill:url(#SVGID_00000132054185073168750040000010247403146880277376_);" d="M22.85,3.74l-0.18,2.09
				c0,0.05-0.05,0.09-0.1,0.09c-0.05,0-0.09-0.05-0.09-0.1C22.47,5.8,22.46,5.9,22.85,3.74z"/>
			
				<linearGradient id="SVGID_00000003096106280586705560000007600517686902622606_" gradientUnits="userSpaceOnUse" x1="22.4857" y1="6.2916" x2="24.4155" y2="6.2916">
				<stop  offset="0" style="stop-color:#D32C5C"/>
				<stop  offset="1" style="stop-color:#AB234C"/>
			</linearGradient>
			<path style="fill:url(#SVGID_00000003096106280586705560000007600517686902622606_);" d="M24.42,6.85l-1.88-0.94
				c-0.05-0.02-0.07-0.08-0.04-0.13c0.02-0.05,0.08-0.07,0.13-0.04C22.63,5.74,22.55,5.69,24.42,6.85z"/>
			
				<linearGradient id="SVGID_00000072978463655663945410000014083877555467084457_" gradientUnits="userSpaceOnUse" x1="22.4712" y1="5.8181" x2="22.6793" y2="5.8181">
				<stop  offset="0" style="stop-color:#D32C5C"/>
				<stop  offset="1" style="stop-color:#AB234C"/>
			</linearGradient>
			<path style="fill:url(#SVGID_00000072978463655663945410000014083877555467084457_);" d="M22.67,5.78c0.02,0.05,0,0.11-0.06,0.14
				c-0.05,0.02-0.11,0-0.14-0.06c-0.02-0.05,0-0.11,0.06-0.14C22.59,5.7,22.65,5.72,22.67,5.78z"/>
		</g>
	</g>
	<g>
		
			<linearGradient id="SVGID_00000029031304431911343020000013909317859153703337_" gradientUnits="userSpaceOnUse" x1="52.1895" y1="11.9992" x2="48.1254" y2="27.6344">
			<stop  offset="0" style="stop-color:#D32C5C"/>
			<stop  offset="1" style="stop-color:#AB234C"/>
		</linearGradient>
		<path style="fill:url(#SVGID_00000029031304431911343020000013909317859153703337_);" d="M48.4,20.85
			c-0.03-0.03-0.07-0.04-0.1-0.03c-0.18,0.05-0.52-0.02-0.68-0.08l-0.18-0.89c0.13-0.12,0.41-0.31,0.59-0.34
			c0.04-0.01,0.07-0.03,0.08-0.07l0.23-0.67c0.01-0.04,0-0.08-0.02-0.1c-0.13-0.13-0.24-0.46-0.27-0.63l0.68-0.6
			c0.17,0.05,0.47,0.2,0.59,0.35c0.02,0.03,0.06,0.05,0.1,0.04l0.7-0.14c0.04-0.01,0.07-0.04,0.08-0.07
			c0.05-0.18,0.28-0.43,0.41-0.55l0.86,0.29c0.04,0.17,0.07,0.51,0,0.68c-0.01,0.04-0.01,0.08,0.02,0.11l0.47,0.53
			c0.03,0.03,0.07,0.04,0.1,0.03c0.18-0.05,0.52,0.02,0.68,0.08l0.18,0.89c-0.13,0.12-0.41,0.31-0.59,0.34
			c-0.04,0.01-0.07,0.03-0.08,0.07L52,20.75c-0.01,0.04,0,0.08,0.02,0.1c0.13,0.13,0.24,0.46,0.27,0.63l-0.68,0.6
			c-0.17-0.05-0.48-0.2-0.59-0.35c-0.02-0.03-0.06-0.05-0.1-0.04l-0.7,0.14c-0.04,0.01-0.07,0.04-0.08,0.07
			c-0.05,0.18-0.28,0.43-0.41,0.55l-0.86-0.29c-0.04-0.17-0.07-0.51,0-0.68c0.01-0.04,0.01-0.08-0.02-0.11L48.4,20.85z M50.35,20.64
			c0.48-0.1,0.79-0.57,0.7-1.05c-0.1-0.48-0.57-0.79-1.05-0.7c-0.48,0.1-0.79,0.57-0.7,1.05C49.4,20.42,49.87,20.73,50.35,20.64z
			 M50.46,21.2c0.79-0.16,1.3-0.93,1.14-1.72c-0.16-0.79-0.93-1.3-1.72-1.14c-0.79,0.16-1.3,0.93-1.14,1.72
			C48.9,20.84,49.67,21.35,50.46,21.2z"/>
		
			<linearGradient id="SVGID_00000002363446248067513530000018358530977559736992_" gradientUnits="userSpaceOnUse" x1="56.5553" y1="13.1341" x2="52.4911" y2="28.7693">
			<stop  offset="0" style="stop-color:#D32C5C"/>
			<stop  offset="1" style="stop-color:#AB234C"/>
		</linearGradient>
		<path style="fill:url(#SVGID_00000002363446248067513530000018358530977559736992_);" d="M54.15,24.02
			c0.01-0.03,0.03-0.05,0.06-0.06l0.55-0.11c0.03-0.01,0.06,0.01,0.08,0.03c0.09,0.12,0.34,0.23,0.47,0.27l0.54-0.47
			c-0.03-0.14-0.11-0.39-0.21-0.5c-0.02-0.02-0.03-0.05-0.02-0.08l0.18-0.53c0.01-0.03,0.04-0.05,0.07-0.05
			c0.15-0.02,0.37-0.18,0.47-0.27l-0.14-0.7c-0.13-0.05-0.39-0.1-0.54-0.06c-0.03,0.01-0.06,0-0.08-0.02l-0.37-0.42
			c-0.02-0.02-0.03-0.06-0.01-0.08c0.06-0.14,0.03-0.41,0-0.54l-0.68-0.23c-0.1,0.09-0.29,0.29-0.33,0.43
			c-0.01,0.03-0.03,0.05-0.06,0.06l-0.55,0.11c-0.03,0.01-0.06-0.01-0.08-0.03c-0.09-0.12-0.34-0.23-0.47-0.27l-0.54,0.47
			c0.03,0.14,0.11,0.39,0.21,0.5c0.02,0.02,0.03,0.05,0.02,0.08l-0.18,0.53c-0.01,0.03-0.04,0.05-0.07,0.05
			c-0.15,0.02-0.37,0.18-0.47,0.27l0.14,0.7c0.13,0.05,0.39,0.1,0.54,0.06c0.03-0.01,0.06,0,0.08,0.02l0.37,0.42
			c0.02,0.02,0.03,0.06,0.01,0.08c-0.06,0.14-0.03,0.41,0,0.54l0.68,0.23C53.93,24.37,54.11,24.17,54.15,24.02z M54.34,23.18
			c-0.47,0.1-0.94-0.21-1.03-0.69c-0.1-0.47,0.21-0.94,0.69-1.03c0.47-0.1,0.94,0.21,1.03,0.69C55.12,22.62,54.82,23.08,54.34,23.18
			z"/>
	</g>
	
		<linearGradient id="SVGID_00000036930639092600735100000005690210984314782620_" gradientUnits="userSpaceOnUse" x1="13.3448" y1="-0.0404" x2="15.353" y2="17.9377">
		<stop  offset="0" style="stop-color:#D32C5C"/>
		<stop  offset="1" style="stop-color:#AB234C"/>
	</linearGradient>
	<path style="fill:url(#SVGID_00000036930639092600735100000005690210984314782620_);" d="M15.39,12.88l-0.61-0.23l-0.54,0.37
		c-0.06,0.04-0.14,0-0.14-0.08l0.03-0.65l-0.52-0.4c-0.06-0.05-0.04-0.14,0.03-0.16l0.63-0.17l0.22-0.62
		c0.02-0.07,0.12-0.08,0.16-0.02L15,11.47l0.65,0.01c0.07,0,0.11,0.09,0.07,0.15l-0.41,0.51l0.19,0.63
		C15.53,12.84,15.46,12.9,15.39,12.88z"/>
	<polygon class="st1" points="16.32,8.96 15.99,8.07 15.14,8.32 14.77,7.46 13.93,7.6 13.55,7 13.24,7.19 13.75,8 14.55,7.86 
		14.93,8.76 15.77,8.51 16.07,9.32 	"/>
	<polygon class="st0" points="52.12,13.08 51.28,12.62 50.81,13.37 49.96,12.96 49.42,13.62 48.74,13.41 48.63,13.76 49.54,14.03 
		50.06,13.41 50.94,13.84 51.41,13.1 52.17,13.52 	"/>
	<polygon class="st0" points="30.07,1.81 29.71,2.7 30.51,3.09 30.19,3.97 30.91,4.44 30.79,5.14 31.14,5.2 31.31,4.26 30.63,3.82 
		30.96,2.9 30.17,2.52 30.49,1.72 	"/>
	
		<linearGradient id="SVGID_00000043444943995219497820000014215648547992643984_" gradientUnits="userSpaceOnUse" x1="44.4368" y1="-5.9616" x2="49.2182" y2="18.2323">
		<stop  offset="0" style="stop-color:#D32C5C"/>
		<stop  offset="1" style="stop-color:#AB234C"/>
	</linearGradient>
	<polygon style="fill:url(#SVGID_00000043444943995219497820000014215648547992643984_);" points="51.16,24.61 50.99,24.26 
		50.59,24.28 50.42,23.88 50,24.02 49.79,23.57 49.39,23.66 49.12,23.26 49.27,23.16 49.47,23.45 49.89,23.36 50.1,23.79 
		50.52,23.65 50.71,24.09 51.1,24.08 51.26,24.4 51.51,24.34 51.56,24.51 	"/>
	
		<linearGradient id="SVGID_00000129905212084902960190000012441454101765299902_" gradientUnits="userSpaceOnUse" x1="41.5985" y1="-5.4006" x2="46.3799" y2="18.7933">
		<stop  offset="0" style="stop-color:#D32C5C"/>
		<stop  offset="1" style="stop-color:#AB234C"/>
	</linearGradient>
	<polygon style="fill:url(#SVGID_00000129905212084902960190000012441454101765299902_);" points="43.84,8.56 43.65,8 44.51,7.61 
		44.34,6.77 44.93,6.37 44.72,6.07 43.93,6.61 44.1,7.4 43.21,7.81 43.49,8.64 	"/>
	<g>
		<path class="st22" d="M50.68,7.29c0.94,1.44-0.34,3.43-2.01,3.14c-0.3-0.05-0.61,0.02-0.88,0.18l-0.93,0.57
			c-0.26,0.16-0.58,0.09-0.74-0.16l-0.36-0.54c-0.16-0.25-0.11-0.59,0.12-0.78c0.84-0.72,1.19-0.92,1.31-1.52
			C47.51,6.41,49.73,5.85,50.68,7.29z"/>
		<g>
			<g>
				<path class="st1" d="M48.47,8.08C48.45,8,48.43,7.91,48.42,7.82c-0.04-0.5,0.35-0.68,0.55-0.55c0.13,0.08,0.18,0.28,0.11,0.46
					c-0.07,0.16-0.21,0.28-0.36,0.41c0.08,0.28,0.21,0.54,0.37,0.77c0.46-0.28,0.79-0.13,0.81,0.12c0.01,0.16-0.09,0.33-0.24,0.39
					c-0.09,0.04-0.33,0.1-0.62-0.22c-0.77,0.55-1.78,1.35-1.79,1.35l-0.13-0.18c0,0,1.01-0.8,1.78-1.35
					c-0.16-0.22-0.28-0.47-0.37-0.73c-0.88,0.77-1.66,1.38-1.69,1.4l-0.13-0.18C46.77,9.49,47.53,8.9,48.47,8.08z M48.84,7.46
					c-0.07-0.03-0.25,0.05-0.18,0.44C48.87,7.73,48.93,7.65,48.84,7.46z M49.23,9.08c0.11,0.12,0.28,0.22,0.4,0.1
					C49.78,9.02,49.57,8.9,49.23,9.08z"/>
			</g>
		</g>
		<path class="st1" d="M47.8,10.59c-0.01,0-0.02,0.01-0.02,0.01l-0.93,0.57c-0.26,0.16-0.58,0.09-0.74-0.16l-0.36-0.54
			c-0.16-0.25-0.11-0.59,0.12-0.78c0.37-0.32,0.65-0.54,0.85-0.73L47.8,10.59z"/>
	</g>
	<g>
		<g>
			<g>
				<path class="st23" d="M6.2,37.59c0,0-0.03-0.15-0.04-0.2c-0.01-0.06-0.02-0.23-0.02-0.23s0-0.62,0.05-0.61
					c0.05,0,0.1,0.11,0.12,0.15c0.01,0.04,0.03,0.08,0.05,0.12c0.01,0.04,0.05,0.06,0.1,0.05c0.05-0.01,0.03-0.18,0.01-0.23
					c-0.06-0.17-0.3-0.6-0.32-0.64c-0.03-0.05,0.17-1.12,0.21-1.49h0c0.08-0.61,0.19-1.22,0.2-1.29l1.08-2.38l-0.72-0.74
					c0,0-1.23,2.63-1.28,2.77c-0.02,0.07-0.1,1.48-0.1,1.48c0.01,0.7,0.01,1.32,0.01,1.44c0,0-0.1,0.35-0.18,0.57
					c-0.08,0.22-0.06,0.46-0.07,0.52c0,0.01-0.06,0.23-0.02,0.51c0.03,0.24,0.11,0,0.11,0s0.02-0.46,0.06-0.45
					c0.03,0.01,0,0.26,0.03,0.52c0.01,0.07,0.02,0.14,0.03,0.2c0.02,0.16,0.13,0.19,0.13,0.02c0-0.06,0-0.16-0.01-0.24
					c-0.01-0.08,0-0.16,0-0.22c0-0.13,0-0.23,0.01-0.23c0.01,0,0.03-0.02,0.04,0.05c0.01,0.09,0,0.28,0.03,0.41
					c0.02,0.07,0.04,0.22,0.04,0.22s0.07,0.24,0.08,0.24c0.08,0,0.08-0.19,0.04-0.29c0.01-0.07-0.02-0.23-0.02-0.23
					s0.01-0.34,0.06-0.34c0.04,0,0.18,0.81,0.26,0.8C6.24,37.83,6.2,37.59,6.2,37.59z"/>
			</g>
			
				<linearGradient id="SVGID_00000036230392171136043220000001057056109822478237_" gradientUnits="userSpaceOnUse" x1="6.6575" y1="27.6568" x2="7.3109" y2="35.0202">
				<stop  offset="0" style="stop-color:#C9CD55"/>
				<stop  offset="0.5065" style="stop-color:#659C52"/>
				<stop  offset="1" style="stop-color:#287F50"/>
			</linearGradient>
			<path style="fill:url(#SVGID_00000036230392171136043220000001057056109822478237_);" d="M7.2,32.19c0,0-0.45-0.08-0.69-0.17
				c-0.32-0.12-0.52-0.22-0.52-0.22s0.35-1.49,0.78-2.39c0.18-0.37,0.36-0.55,0.61-0.6c0,0,0.53,0.35,0.51,1.19
				C7.89,30.21,7.2,32.19,7.2,32.19z"/>
			<g>
				<path class="st23" d="M8.57,37.2l0.58,5.34c0,0-0.28,1.13-0.25,1.45c0.03,0.32,0.63,4.53,0.63,4.53l-0.03,0.24l0,0.7h2.21
					c0,0-0.47-0.22-1.13-0.64c-0.05-0.03-0.16-0.13-0.19-0.33c-0.18-1.3,0.17-5.62,0.17-5.62l0.27-5.63L8.57,37.2z"/>
				<path class="st23" d="M6.79,38.32c-0.13,0.03-0.32,4.62-0.42,4.83c-0.66,1.29-0.81,5.21-0.81,5.21l-0.19,0.56l-0.2,0.68
					c0,0,0.66,0.18,1-0.02l-0.04-0.68l-0.03-0.62l1.66-4.89l0.91-4.98L6.79,38.32z"/>
				<path class="st1" d="M10.09,29.43c-0.27-0.38-1.37-1.47-1.49-1.46c-0.36,0.01-1.53,0.01-1.76,0.13l0,0.26
					c0.01,1.15,0.15,2.29,0.44,3.4c0.2,0.77,0.39,1.6,0.37,1.9l0.01,0.01c0.68,0.67,1.75,0.62,2.37-0.12l0,0c0,0,0-0.82,0.09-1.57
					C10.26,30.78,10.75,30.36,10.09,29.43z"/>
				<path class="st23" d="M8.24,26.8c0,0,0.03,0.76-0.04,1.05c-0.07,0.29-0.16,0.31,0.42,0.4c0.23,0.03,0.44,0.09,0.44,0.09
					S9,27.91,8.99,27.73c-0.01-0.3,0.07-1.21,0.07-1.21L8.24,26.8z"/>
				<path class="st25" d="M8.67,27.18C8.79,27.24,8.9,27.28,9,27.3c0.02-0.36,0.06-0.78,0.06-0.78l-0.78,0.26
					C8.37,26.94,8.5,27.08,8.67,27.18z"/>
				<path class="st23" d="M8.42,24.65c0,0-0.33,0.12-0.51,0.48c-0.18,0.36-0.25,1.37,0.46,1.77c0.35,0.2,0.76,0.23,0.95,0.06
					c0.2-0.18,0.17-0.57,0.15-0.89C9.44,25.42,9.3,24.45,8.42,24.65z"/>
				<path class="st23" d="M7.89,25.93c0.04,0.17-0.01,0.33-0.12,0.36c-0.11,0.03-0.23-0.08-0.27-0.25
					c-0.04-0.17,0.01-0.33,0.12-0.36C7.73,25.65,7.85,25.76,7.89,25.93z"/>
				<path class="st0" d="M6.13,48.9c-0.3,0.14-0.63,0.05-0.76,0.01L5.16,49.6c0,0,0.66,0.2,1,0L6.13,48.9z"/>
				<path class="st25" d="M6.41,41.04C6.41,41.04,6.41,41.04,6.41,41.04L6.41,41.04z"/>
				<path class="st0" d="M9.49,49.62h2.3c0.09-0.01,0.11-0.08,0.08-0.12c-0.06-0.09-0.33-0.16-0.63-0.3
					c-0.53,0.06-1.64-0.32-1.72-0.45C9.46,49,9.44,49.61,9.49,49.62z"/>
				<path class="st26" d="M14.11,31.17c0.04-0.06,0.19-0.37,0.19-0.37s0.15-0.52,0.12-0.51c-0.02,0-0.08,0.08-0.16,0.23
					c-0.05,0.1-0.1,0.26-0.14,0.35c-0.08,0.15-0.18,0.21-0.15,0.15c0.02-0.04,0.07-0.07,0.12-0.16c0.12-0.21,0.23-0.56,0.18-0.55
					c-0.04,0.01-0.16,0.25-0.29,0.43c-0.06,0.08-0.22,0.18-0.32,0.25c0-0.05,0.01-0.09,0.02-0.11c0.01-0.04,0.2-0.28,0.12-0.31
					c-0.07-0.03-0.51,0.49-0.51,0.49l-0.18,0.3l-0.02,0.01l0,0c0,0-2.17,0.85-2.24,0.83c-0.17-0.05-0.75-1.75-0.75-1.75l-1.21,0.22
					c-0.02-0.01,1.28,2.52,1.52,2.64c0.21,0.11,2.47-1.07,2.89-1.32c0.58-0.22,0.81-0.49,0.91-0.63c0.05-0.07,0.25-0.39,0.25-0.39
					s0.04-0.44,0.01-0.45c-0.11-0.01-0.14,0.4-0.14,0.4s-0.14,0.2-0.17,0.22C14.1,31.21,14.11,31.17,14.11,31.17z"/>
				<path class="st27" d="M8.11,28.98c-0.17,0.7,0.72,2.27,0.72,2.27s1.26-0.61,1.48-0.88c0,0-0.87-1.43-0.92-1.53
					c-0.12-0.2-0.52-0.62-0.8-0.54C8.41,28.35,8.11,28.98,8.11,28.98z"/>
				<path class="st0" d="M8.31,27.24c0.09-0.64,1.16-1.96,0.75-2.51c-0.33-0.44-0.92-0.31-1.29-0.18c-1.68,0.58-1.59,2.69-2.12,3.03
					c-0.96,0.6-1.56,0.97-1.63,2.32c-0.08,1.6,1.28,2.42,2.92,2.03c0.88-0.21,1.11-0.5,1.47-1.33c0.16-0.37,0.48-1.54,0.39-2.11
					C8.73,27.98,8.23,27.76,8.31,27.24z"/>
				<path class="st23" d="M8.95,26.06c0,0.19-0.07,0.35-0.15,0.35s-0.15-0.15-0.15-0.35c0-0.19,0.07-0.35,0.15-0.35
					S8.95,25.87,8.95,26.06z"/>
				<path class="st0" d="M11.06,40.67l0.08-3.17c0.01-0.9-0.16-1.78-0.52-2.6l-0.6-1.37c-0.24,0.08-0.47,0.15-0.72,0.18
					c-0.55,0.06-1.1,0-1.65-0.06c0,0.02,0,0.04-0.01,0.06c-0.1,0.47-0.66,1.51-0.89,2.93c-0.27,1.61-0.37,4.03-0.33,4.22
					C8.96,40.96,9.57,41.05,11.06,40.67z"/>
			</g>
		</g>
	</g>
	<g>
		<g>
			<path class="st1" d="M42.75,24.81l1.92,1.92c0,0,3.65,1.43,4.06,2.3c0.41,0.88-0.37,0.84-1.22,0.71
				c-0.86-0.12-3.28-1.63-3.28-1.63l-2.22-2.57L42.75,24.81z"/>
			<path class="st22" d="M48.35,28.65l-0.47-0.17l-0.92,0.43c0,0-0.47,0.32-0.7,1.12c-0.23,0.79,0,5.55,0.38,6.31
				C47.02,37.1,48.35,28.65,48.35,28.65z"/>
			<path class="st23" d="M51.36,47.71c0,0,0.34,0.22,0.36,0.32c0.03,0.1,0.27,1.18,0.18,1.31c-0.09,0.13-0.43,0.06-0.3,0.16
				c0.1,0.07,0.74,0.12,1.15,0.01c0.12-0.03,0.06-1.04,0.08-1.2c0.03-0.22,0.18-0.73,0.09-0.86c-0.05-0.06-0.31-0.18-0.55-0.27
				c-0.25-0.1-0.52-0.37-0.52-0.37L51.36,47.71z"/>
			<path class="st0" d="M52.36,47.16c0,0-0.2,1.92-0.43,2.06c-0.06,0.04-0.39,0.07-0.42,0.22c0,0-0.01,0.16,0.09,0.16l1.24,0
				c0,0,0.01-0.94,0.01-1.31c0,0,0.17-0.94,0.12-1.01C52.91,47.21,52.36,47.16,52.36,47.16z"/>
			<path class="st23" d="M56.22,47.71c0,0,0.34,0.22,0.36,0.32c0.03,0.1,0.27,1.18,0.18,1.31c-0.09,0.13-0.43,0.06-0.3,0.16
				c0.1,0.07,0.74,0.12,1.15,0.01c0.12-0.03,0.06-1.04,0.08-1.2c0.03-0.22,0.18-0.73,0.09-0.86c-0.05-0.06-0.31-0.18-0.55-0.27
				c-0.25-0.1-0.52-0.37-0.52-0.37L56.22,47.71z"/>
			<path class="st0" d="M50.12,35.26c0,0,1.14,2.26,1.37,2.86l1.73,4.39L57.04,47c0,0-0.28,0.72-0.7,0.91c0,0-4.6-3.72-4.98-4.3
				c-0.58-0.89-3.2-6.36-3.2-6.36l-0.49-1.05L50.12,35.26z"/>
			<path class="st0" d="M47.38,35.23l0.02,1.92c0,0-0.82,6.28-0.66,6.65c0.39,0.91,4.66,3.99,4.66,3.99l0.58-1l-3.07-3.42l1.16-3.33
				c0.33-0.77,1.02-2.27,1-3.11c-0.02-0.72-1.44-2.39-1.44-2.39L47.38,35.23z"/>
			<path class="st1" d="M49.22,37.9c1.13-0.26,2.05-0.66,2.14-0.97c0.04-0.14-0.59-1.58-1.05-3.49c-0.15-0.63-0.12-1.21-0.37-3.4
				c-0.05-0.46-0.24-1.44-0.96-1.69c-0.25-0.09-0.39-0.08-0.39-0.08c-0.01,0-0.92,0.01-1.33,0.24c-0.1,0.14-0.49,0.9-0.59,2.98
				c-0.04,0.91-0.23,3.82-0.19,4.3c0.01,0.07,0.01,0.14,0.02,0.2C46.66,37.24,47.98,38.18,49.22,37.9z"/>
			<path class="st23" d="M47.12,30.1C47.12,30.1,47.12,30.1,47.12,30.1c0.46-0.05,1.62-1.57,1.62-1.57l0,0l-0.72-1.13
				c0,0-1.05,0.19-0.85,0.51c0.21,0.32,0.32,1.09,0.32,1.09c0,0.01-0.01,0.02-0.01,0.03C47.41,29.18,47.18,29.65,47.12,30.1z"/>
			<path class="st28" d="M47.18,27.9c-0.21-0.32,0.85-0.51,0.85-0.51l0.06,0.09c0,0.08-0.01,0.15-0.03,0.22
				c-0.11,0.32-0.39,0.6-0.67,0.74C47.33,28.24,47.26,28.04,47.18,27.9z"/>
			<g>
				<path class="st23" d="M47.43,25.6c0.02-0.02,0.82,1.29,0.63,1.83c-0.19,0.54-0.84,0.97-1.22,0.78
					c-0.42-0.21-1.07-1.72-0.68-2.36C46.55,25.21,47.43,25.6,47.43,25.6z"/>
				<path class="st0" d="M46.27,25.01c0.47-0.1,1.31,0.04,1.78,0.37c0.58,0.41,0.6,1.14,0.34,1.61c-0.26,0.47-0.1,0.82-0.1,0.82
					s-0.82-0.05-0.98-0.61c-0.07-0.23,0.02-0.39-0.14-0.52c-0.12-0.1-0.22-0.4-0.34-0.63c0,0-0.53-0.28-0.73-0.05
					C46.03,26.08,45.67,25.14,46.27,25.01z"/>
				<path class="st23" d="M47.09,26.79c0.07,0.17,0.21,0.28,0.31,0.24c0.1-0.04,0.12-0.21,0.05-0.39c-0.07-0.17-0.21-0.28-0.31-0.24
					C47.04,26.44,47.01,26.61,47.09,26.79z"/>
			</g>
			<path class="st0" d="M57.23,47.17c0,0-0.2,1.91-0.44,2.06c-0.06,0.04-0.39,0.07-0.42,0.22c0,0-0.01,0.17,0.09,0.16l1.24,0
				c0,0,0.01-0.94,0.01-1.31c0,0,0.17-0.94,0.12-1.01C57.77,47.21,57.23,47.17,57.23,47.17z"/>
		</g>
		<g>
			<g>
				
					<linearGradient id="SVGID_00000178166707344198812330000004704437709067402906_" gradientUnits="userSpaceOnUse" x1="22.2343" y1="29.4775" x2="44.6446" y2="29.4775">
					<stop  offset="0" style="stop-color:#D32C5C"/>
					<stop  offset="1" style="stop-color:#AB234C"/>
				</linearGradient>
				<path style="fill:url(#SVGID_00000178166707344198812330000004704437709067402906_);" d="M29.79,38.32
					c-0.99-2.06-1.26-5.14-0.18-7.58c1.81-4.12,6.8-5.8,6.43-10.47c-0.09-1.18-0.62-2.12-1.39-2.73c-2.03-1.6-5.29-0.75-7.62,0.36
					c-1.49,0.72-2.87,1.73-4.15,3.04l-0.65-8.25c2.8-1.98,6.18-3.02,9.56-3.29c6.92-0.54,12.27,2.05,12.81,8.98
					c0.5,6.31-3.77,9.11-6.63,12.27c-1.59,1.75-1.95,3.1-1.83,4.67c0.06,0.81,0.37,1.81,0.85,2.44L29.79,38.32z M34.76,49.6
					c-6.73,0.53-7.51-8.51-0.71-9.04C40.75,40.03,41.46,49.07,34.76,49.6z"/>
			</g>
		</g>
		<path class="st26" d="M41.72,25.23c-0.01-0.06,0.03-0.01-0.05-0.46c-0.02-0.13-0.11-0.26-0.16-0.34
			c-0.03-0.04-0.11-0.11-0.15-0.13c-0.08-0.05-0.14,0.03-0.12,0.07c0.02,0.04,0.09,0.19,0.11,0.23c0.02,0.04,0.02,0.15-0.01,0.18
			c-0.04,0.03-0.59-0.6-0.63-0.66c-0.03-0.05-0.1-0.26-0.1-0.26s-0.05-0.15-0.11-0.11c-0.04,0.03-0.08,0.15,0.03,0.4
			c0.1,0.21,0.23,0.39,0.22,0.4c-0.04,0.03-0.28-0.26-0.28-0.26s-0.08-0.16-0.14-0.22c-0.04-0.11-0.1-0.24-0.17-0.19
			c-0.01,0.01,0.03,0.24,0.03,0.24s0.08,0.15,0.12,0.23c0.06,0.13,0.21,0.29,0.26,0.38c0.04,0.07,0,0.05,0,0.06
			c0,0.01-0.06-0.07-0.16-0.19c-0.05-0.06-0.11-0.11-0.16-0.19c-0.04-0.07-0.11-0.16-0.16-0.21c-0.13-0.15-0.19-0.05-0.1,0.11
			c0.04,0.06,0.08,0.13,0.12,0.19c0.16,0.26,0.35,0.46,0.34,0.48c-0.02,0.03-0.36-0.35-0.36-0.35s-0.24-0.16-0.1,0.07
			c0.16,0.27,0.34,0.44,0.35,0.45c0.06,0.05,0.2,0.28,0.42,0.42c0.22,0.14,0.57,0.35,0.57,0.35c0.04,0.05,0.14,0.21,0.29,0.44
			l0.53-0.64C41.96,25.52,41.73,25.27,41.72,25.23z"/>
		<path class="st27" d="M41.3,26.13l0.73-0.64l2.52,2.49c0,0,3.9,0.34,3.91,0.34l0.16,0.05c1.41,0.49,0.83,1.64,0.56,1.82
			c-0.64,0.42-4.16,0.17-5.29-0.53C42.96,29.08,41.3,26.13,41.3,26.13z"/>
	</g>
	<g>
		<path class="st26" d="M15.04,29.7c0.03,0.1,0.04,0.14,0.08,0.21c0.23,0.45,0.77,1.09,0.77,1.09l0.41-0.99c0,0-0.07-0.31-0.18-0.76
			C15.72,29.35,15.34,29.41,15.04,29.7z"/>
		<path class="st27" d="M17.42,28.83c0,0-2.31,1.06-2.38,1.04c-0.05-0.01-0.95-1.62-0.96-3.13c0-0.7,0.67-1.54,1.43-1.37
			c0.38,0.08,0.38,0.2,0.94,1.07C17.01,27.32,17.42,28.83,17.42,28.83z"/>
		<path class="st23" d="M19.38,47.84c0,0-0.05,0.97-0.06,0.97c-0.02,0.12-0.1,0.43-0.1,0.54c0,0.42,1.87-0.36,1.45-0.54
			c-0.04-0.02-0.24-0.14-0.25-0.29c-0.02-0.22-0.07-0.66-0.07-0.66L19.38,47.84z"/>
		<path class="st0" d="M20.67,48.81c0,0-0.44,0.13-0.66,0.16c-0.22,0.03-0.52-0.24-0.68-0.17c-0.17,0.08-0.17,0.8-0.17,0.8
			s2.35,0.21,3.01-0.01C22.44,49.51,21.57,49.1,20.67,48.81z"/>
		<path class="st23" d="M15.57,47.84c0,0-0.05,0.97-0.06,0.97c-0.02,0.12-0.1,0.43-0.1,0.54c0,0.42,1.87-0.36,1.45-0.54
			c-0.04-0.02-0.29-0.24-0.31-0.38c-0.02-0.22-0.01-0.57-0.01-0.57L15.57,47.84z"/>
		<path class="st0" d="M16.86,48.81c0,0-0.44,0.13-0.66,0.16c-0.22,0.03-0.52-0.24-0.68-0.17c-0.17,0.08-0.18,0.8-0.18,0.8
			s2.36,0.24,3.02-0.01C18.61,49.5,17.75,49.1,16.86,48.81z"/>
		<g>
			<path class="st23" d="M16.14,30.23l1.64-2.46c0.01-0.02,0.02-0.07,0.04-0.13c0.08-0.24,0.25-0.75,0.4-1.26l0-0.01
				c0.05-0.18,0.15-0.48,0.24-0.78c0.11-0.33,0.24-0.74,0.25-0.81c0-0.01-0.01-0.03-0.02-0.06c-0.06-0.17-0.14-0.56-0.17-0.74
				c-0.02-0.11-0.04-0.38,0.09-0.38c0.19,0,0.1,0.27,0.19,0.43c0.03-0.11,0.1-0.33,0.13-0.56l0.03-0.52
				c0.01-0.04-0.03-0.33,0.1-0.33l0.01,0c0.12,0.01,0.12,0.32,0.17,0.83c0.02-0.06,0.03-0.13,0.04-0.2c0-0.04,0.02-0.19,0.04-0.27
				c-0.02-0.14-0.01-0.37,0.13-0.35c0.07,0.01,0.07,0.33,0.07,0.33c0,0.04-0.01,0.38,0,0.45c0.01-0.11,0.07-0.59,0.19-0.59
				c0.09,0,0.1,0.13,0.1,0.23c0,0.06-0.06,0.58-0.06,0.64c0.04-0.08,0.1-0.54,0.14-0.54c0.18,0,0.12,0.65,0.05,0.82
				c-0.01,0.02-0.01,0.05-0.02,0.09c-0.02,0.12-0.06,0.31-0.16,0.49c-0.11,0.21-0.27,0.54-0.3,0.59c-0.02,0.1-0.07,0.48-0.14,0.95
				c-0.03,0.2-0.06,0.42-0.1,0.65l0,0c-0.01,0.05-0.04,0.21-0.17,0.8c-0.18,0.81-0.2,0.84-0.2,0.86c-0.08,0.15-1.85,2.71-1.92,2.82
				l-0.04,0.06L16.14,30.23z"/>
			<path class="st25" d="M19.19,24.5c0,0-0.13-0.36-0.37-0.36c0,0,0.13-0.05,0.25,0.05C19.18,24.28,19.19,24.5,19.19,24.5z"/>
		</g>
		<g>
			<path class="st23" d="M15.74,23.8l-0.21,1.43c0,0,0.81,0.69,1.28,0.55c0.39-0.12,0.12-0.67,0.12-0.67s-0.21-0.76-0.15-1.16
				C16.85,23.54,15.74,23.8,15.74,23.8z"/>
			<path class="st28" d="M15.89,24.23c0.2,0.1,0.6,0.24,0.91,0.27c-0.03-0.2-0.05-0.41-0.02-0.57c0.03-0.18-0.19-0.23-0.44-0.22
				c-0.32,0.03-0.61,0.08-0.61,0.08l-0.04,0.27C15.76,24.14,15.83,24.2,15.89,24.23z"/>
			<path class="st23" d="M14.72,22.15c-0.03,0,0.32,1.6,0.86,1.87c0.54,0.27,1.36,0.13,1.51-0.3c0.17-0.48-0.45-2.1-1.21-2.31
				C15.12,21.21,14.72,22.15,14.72,22.15z"/>
			<path class="st30" d="M15.35,20.69c-0.43,0.27-0.63,0.66-0.7,0.83c-0.2,0.1-0.45,0.33-0.57,0.93c-0.15,0.74,0.37,1.31,0.92,1.48
				c0.55,0.17,0.64,0.56,0.64,0.56l0.05-0.42c0,0-0.12-0.36-0.31-0.55c-0.18-0.18,0.09-0.45,0.11-0.66c0.02-0.17-0.1-0.49-0.07-0.76
				c0,0,0.31-0.49,0.61-0.62C16.55,21.27,15.91,20.34,15.35,20.69z"/>
			<path class="st23" d="M15.59,23.14c0.07,0.18,0.04,0.37-0.06,0.41c-0.11,0.04-0.25-0.07-0.32-0.26
				c-0.07-0.18-0.04-0.37,0.06-0.41C15.37,22.84,15.51,22.95,15.59,23.14z"/>
		</g>
		<path class="st26" d="M17.61,30.27l3.17-0.55c0,0-0.36-0.97-0.49-0.97c-0.13,0-2.4,1.06-2.4,1.06l-0.18,0.39L17.61,30.27z"/>
		
			<linearGradient id="SVGID_00000011735401483926920730000004366262776814941066_" gradientUnits="userSpaceOnUse" x1="19.5417" y1="34.8942" x2="14.2822" y2="43.7877">
			<stop  offset="0" style="stop-color:#D32C5C"/>
			<stop  offset="1" style="stop-color:#AE244D"/>
		</linearGradient>
		<path style="fill:url(#SVGID_00000011735401483926920730000004366262776814941066_);" d="M15.99,32.59c0,0-0.32,1.63-0.19,2.87
			c0.13,1.24,0.14,5.63,0.14,5.63l-0.49,7.03l1.17,0.03c0,0,1.38-7.03,1.36-6.85c-0.03,0.18,0.46-4.95,0.46-4.95l-1.65-3.92
			L15.99,32.59z"/>
		
			<linearGradient id="SVGID_00000167360760123797014570000003148493990936021153_" gradientUnits="userSpaceOnUse" x1="21.1506" y1="35.8457" x2="15.891" y2="44.7391">
			<stop  offset="0" style="stop-color:#D32C5C"/>
			<stop  offset="1" style="stop-color:#AE244D"/>
		</linearGradient>
		<path style="fill:url(#SVGID_00000167360760123797014570000003148493990936021153_);" d="M16.3,32.51c0,0-0.21,1.47,0.05,2.11
			c0.26,0.64,2.21,6.97,2.24,7.48c0.03,0.52,0.68,6.21,0.68,6.21l1.36-0.04l0.29-6.33l-0.61-7.96l-0.6-2.01L16.3,32.51z"/>
		<path class="st23" d="M15.53,25.23c0,0,0.33,0.23,0.65,0.21c0.31-0.03,0.75-0.33,0.75-0.33l-0.06-0.22c0,0-0.81-0.13-0.83-0.11
			C16.02,24.78,15.53,25.23,15.53,25.23z"/>
		<path class="st26" d="M19.1,28.7c0,0,1.2,1.21,1.74,1c0.54-0.21,0.77-0.91-0.56-1.94C19.1,26.84,19.1,28.7,19.1,28.7z"/>
		<path class="st1" d="M19.91,30.19c-0.18-1.03-1.47-4.25-1.57-4.84c-0.05-0.29-0.75-0.29-1.41-0.26c-0.7,0.04-1.4,0.13-1.4,0.13
			s-0.62,0.11-0.89,0.38c-0.27,0.27-0.35,1.03,0.05,2.46c0.31,1.13,0.69,1.75,0.88,2.58c0.04,0.28,0.07,0.55,0.12,0.87
			c0.07,1.23,0,2.86,0,2.86s3.38,0.75,4.64-0.39C20.32,33.98,20.09,31.25,19.91,30.19z"/>
		<path class="st27" d="M20.77,27.97c0,0-1.32,1.17-1.4,1.17c-0.05,0-1.89-1.44-2.32-2.63c-0.23-0.66,0.26-1.39,0.82-1.39
			c0.39,0,0.56,0.11,1.34,0.8C19.98,26.62,20.77,27.97,20.77,27.97z"/>
	</g>
	<g>
		<path class="st1" d="M41,4.83l-2.87,1.94c-0.29,0.2-0.69,0.12-0.89-0.17L35.3,3.73c-0.2-0.29-0.12-0.69,0.17-0.89l2.87-1.94
			c0.29-0.2,0.69-0.12,0.89,0.17l1.94,2.87C41.37,4.24,41.3,4.64,41,4.83z"/>
		<path class="st3" d="M39.56,2.8c0.5,0.74,0.31,1.75-0.44,2.26c-0.74,0.5-1.75,0.31-2.26-0.44c-0.5-0.74-0.31-1.75,0.44-2.26
			C38.05,1.86,39.06,2.05,39.56,2.8z"/>
		<path class="st1" d="M37.68,3.04l0.67,0.73c0.05,0.05,0.05,0.14-0.01,0.18C38.28,4,38.2,4,38.15,3.94
			c-0.01-0.01-0.01-0.02-0.02-0.03L37.68,3.04z"/>
		<path class="st1" d="M38.19,3.77l1.01-0.56l-0.88,0.75C38.27,4,38.2,3.99,38.16,3.94c-0.04-0.05-0.03-0.12,0.01-0.16
			C38.17,3.78,38.18,3.78,38.19,3.77z"/>
	</g>
	<path class="st1" d="M12.09,20.57H7.48c-1.38,0-2.5-1.12-2.5-2.5v0c0-1.38,1.12-2.5,2.5-2.5h4.61c1.38,0,2.5,1.12,2.5,2.5v0
		C14.59,19.45,13.47,20.57,12.09,20.57z"/>
	<polygon class="st1" points="13.45,18.68 15.82,19.74 14.23,17.52 	"/>
	<g>
		<path class="st3" d="M8.18,17.9c0,0.2-0.19,0.37-0.41,0.37s-0.41-0.17-0.41-0.37c0-0.2,0.19-0.37,0.41-0.37S8.18,17.7,8.18,17.9z"
			/>
		<path class="st3" d="M10.11,17.9c0,0.2-0.19,0.37-0.41,0.37c-0.23,0-0.41-0.17-0.41-0.37c0-0.2,0.19-0.37,0.41-0.37
			C9.92,17.53,10.11,17.7,10.11,17.9z"/>
		<path class="st3" d="M12.04,17.9c0,0.2-0.19,0.37-0.41,0.37c-0.23,0-0.41-0.17-0.41-0.37c0-0.2,0.19-0.37,0.41-0.37
			C11.85,17.53,12.04,17.7,12.04,17.9z"/>
	</g>
	<g>
		<polygon class="st0" points="34.38,0.98 33.99,0.15 34.32,0 34.54,0.47 35.08,0.14 35.26,0.45 		"/>
	</g>
	<g>
		<polygon class="st0" points="12.3,12.95 11.43,13.26 11.31,12.92 11.8,12.75 11.53,12.18 11.85,12.02 		"/>
	</g>
	<g>
		<g>
			<path class="st1" d="M48.16,4.57c0.06,0.2,0.13,0.41,0.19,0.61c0.05,0.16,0.09,0.42,0.24,0.51c0.04,0.02,0.1,0.01,0.12-0.03
				c0.08-0.17-0.03-0.39-0.09-0.56c-0.07-0.2-0.13-0.41-0.2-0.61C48.38,4.32,48.11,4.39,48.16,4.57L48.16,4.57z"/>
		</g>
	</g>
	<g>
		<g>
			<path class="st1" d="M50.33,4.35C50,5.48,50,5.45,50.02,5.56c0.02,0.09,0.14,0.12,0.2,0.05c0.08-0.08,0.06-0.06,0.38-1.19
				C50.65,4.25,50.38,4.17,50.33,4.35L50.33,4.35z"/>
		</g>
	</g>
	<g>
		<g>
			<path class="st1" d="M51.6,6.87c0.2-0.09,0.39-0.19,0.59-0.28c0.17-0.08,0.4-0.15,0.52-0.31c0.05-0.07-0.02-0.16-0.09-0.16
				c-0.19-0.01-0.4,0.14-0.57,0.22c-0.2,0.09-0.39,0.19-0.59,0.28C51.29,6.71,51.43,6.95,51.6,6.87L51.6,6.87z"/>
		</g>
	</g>
	<g>
		<g>
			<path class="st1" d="M50.96,10.27c0.2,0.26,0.4,0.52,0.63,0.76c0.12,0.13,0.3-0.06,0.19-0.19c-0.21-0.25-0.43-0.5-0.63-0.76
				C51.04,9.95,50.85,10.14,50.96,10.27L50.96,10.27z"/>
		</g>
	</g>
	<g>
		<path class="st1" d="M51.69,8.95c0.18,0.08,0.36,0.15,0.55,0.23c0.17,0.07,0.37,0.18,0.55,0.16c0.1-0.01,0.11-0.14,0.05-0.2
			c-0.07-0.07-0.1-0.07-0.5-0.22c-0.18-0.07-0.36-0.14-0.54-0.21C51.66,8.65,51.55,8.89,51.69,8.95L51.69,8.95z"/>
	</g>
</g>
</svg>
