<?xml version="1.0" encoding="utf-8"?>
<!-- Generator: Adobe Illustrator 26.0.0, SVG Export Plug-In . SVG Version: 6.00 Build 0)  -->
<svg version="1.1" id="Layer_1" xmlns="http://www.w3.org/2000/svg" xmlns:xlink="http://www.w3.org/1999/xlink" x="0px" y="0px"
	 viewBox="0 0 16.93 4.04" style="enable-background:new 0 0 16.93 4.04;" xml:space="preserve">
<style type="text/css">
	.st0{fill:#2EA1A6;}
	.st1{fill-rule:evenodd;clip-rule:evenodd;fill:#2EA1A6;}
	.st2{fill-rule:evenodd;clip-rule:evenodd;fill:#D32C5C;}
	.st3{fill:none;stroke:#D32C5C;stroke-width:0.1586;stroke-miterlimit:22.926;}
	.st4{fill:#D32C5C;}
</style>
<g>
	<rect x="11.62" y="0.16" class="st0" width="0.48" height="0.1"/>
	<g>
		<path class="st1" d="M1.53,0.32V2.2H1.8c0.05,0,0.1-0.01,0.14-0.04C1.97,2.13,1.98,2.1,1.98,2.05V0.5c0-0.05-0.01-0.09-0.05-0.13
			C1.9,0.34,1.86,0.32,1.82,0.32H1.53z M0.59,1.2l-0.12,1H0.7L0.59,1.2z M2.12,2.33c0.01,0.01,0.03,0.03,0.04,0.04
			c0.05,0.07,0.06,0.17,0.06,0.25v0.91c0,0.03,0,0.13,0.04,0.14c0.05,0.02,0.1,0.04,0.15,0.04l0.06,0.01l0.01,0.22H2.41
			c-0.12,0-0.24-0.03-0.32-0.12c-0.08-0.08-0.1-0.19-0.1-0.3V2.62c0-0.05-0.01-0.1-0.05-0.14C1.9,2.43,1.85,2.42,1.8,2.42H1.53v1.51
			L1.29,3.95V2.42H1.08V2.2h0.21V0.1h0.52c0.11,0,0.21,0.04,0.28,0.12C2.17,0.3,2.22,0.4,2.22,0.51v1.55c0,0.08-0.02,0.16-0.06,0.22
			C2.14,2.3,2.13,2.31,2.12,2.33 M2.81,0.48V0.4V0.32H2.47V0.1h0.91v0.22H3.06v3.62H2.81V2.21V0.79V0.48z M0.72,2.42H0.45L0.28,3.95
			l-0.24,0l0.17-1.52H0.03V2.2h0.22L0.5,0.1H0.7l0.42,3.84l-0.22,0L0.72,2.42z"/>
		<path class="st2" d="M5.38,3.58H4.78V1.34C4.57,1.54,4.31,1.7,4.02,1.79V1.25c0.16-0.05,0.32-0.15,0.5-0.29
			C4.7,0.82,4.83,0.66,4.9,0.47h0.48V3.58z M5.8,0.1H3.6v3.85h2.2V0.1z"/>
		<path class="st3" d="M5.38,3.58H4.78V1.34C4.57,1.54,4.31,1.7,4.02,1.79V1.25c0.16-0.05,0.32-0.15,0.5-0.29
			C4.7,0.82,4.83,0.66,4.9,0.47h0.48V3.58z M5.8,0.1H3.6v3.85h2.2V0.1z"/>
		<rect x="0.03" y="2.2" class="st1" width="1.73" height="0.22"/>
		<path class="st4" d="M6.67,2.26C6.58,2.2,6.52,2.12,6.47,2.02C6.42,1.92,6.4,1.81,6.4,1.69c0-0.1,0.02-0.21,0.05-0.33l0.2,0.1
			C6.63,1.55,6.62,1.63,6.62,1.7c0,0.09,0.02,0.16,0.05,0.23C6.69,1.99,6.74,2.04,6.8,2.08C6.85,2.12,6.92,2.14,7,2.14
			c0.08,0,0.14-0.02,0.2-0.05c0.06-0.04,0.1-0.09,0.13-0.15C7.36,1.86,7.37,1.78,7.37,1.7c0-0.06-0.01-0.13-0.02-0.2
			C7.34,1.43,7.32,1.36,7.29,1.3l0.2-0.1c0.03,0.07,0.06,0.15,0.08,0.24c0.02,0.09,0.03,0.17,0.03,0.25c0,0.12-0.02,0.23-0.07,0.33
			C7.47,2.12,7.41,2.2,7.32,2.26C7.23,2.31,7.12,2.34,7,2.34C6.87,2.34,6.76,2.31,6.67,2.26 M6.89,1.03C6.87,1,6.86,0.97,6.86,0.93
			c0-0.04,0.01-0.07,0.04-0.1C6.92,0.81,6.95,0.8,6.99,0.8c0.04,0,0.07,0.01,0.09,0.04c0.02,0.02,0.04,0.06,0.04,0.1
			c0,0.04-0.01,0.07-0.04,0.1C7.06,1.06,7.02,1.07,6.99,1.07C6.95,1.07,6.92,1.06,6.89,1.03"/>
		<path class="st4" d="M8.76,1.09v0.86c0,0.13-0.04,0.24-0.11,0.32c-0.07,0.08-0.17,0.11-0.3,0.12L8.32,2.17
			C8.4,2.18,8.45,2.16,8.49,2.13c0.04-0.04,0.05-0.1,0.05-0.18V1.91C8.47,1.93,8.4,1.95,8.33,1.95c-0.1,0-0.19-0.02-0.27-0.07
			C7.98,1.83,7.92,1.77,7.87,1.7C7.82,1.62,7.8,1.54,7.8,1.45c0-0.09,0.02-0.17,0.07-0.25c0.05-0.08,0.11-0.14,0.19-0.18
			c0.08-0.04,0.17-0.07,0.27-0.07c0.07,0,0.14,0.01,0.21,0.04c0.08,0.02,0.15,0.06,0.21,0.1L8.76,1.09z M8.54,1.69V1.21
			C8.47,1.18,8.4,1.16,8.33,1.16c-0.06,0-0.11,0.01-0.16,0.04C8.12,1.22,8.08,1.26,8.06,1.3C8.03,1.35,8.02,1.4,8.02,1.45
			s0.01,0.1,0.04,0.15C8.08,1.64,8.12,1.67,8.17,1.7c0.05,0.03,0.1,0.04,0.16,0.04C8.4,1.74,8.47,1.72,8.54,1.69"/>
		<path class="st0" d="M10.99,1.01v0.94l-1.07,0c-0.13,0-0.24-0.04-0.31-0.11C9.53,1.76,9.5,1.65,9.5,1.52
			c0-0.09,0.02-0.16,0.05-0.23c0.03-0.07,0.08-0.13,0.14-0.18l0.18,0.12C9.81,1.28,9.78,1.33,9.75,1.37
			C9.73,1.42,9.72,1.47,9.72,1.52c0,0.07,0.02,0.12,0.06,0.16c0.04,0.04,0.09,0.06,0.16,0.06h0.84V1.01H10.99z M10.04,0.84
			C10.02,0.82,10,0.79,10,0.75c0-0.03,0.01-0.06,0.03-0.09c0.02-0.02,0.05-0.03,0.08-0.03c0.03,0,0.06,0.01,0.08,0.03
			c0.02,0.02,0.03,0.05,0.03,0.09c0,0.03-0.01,0.06-0.03,0.09c-0.02,0.02-0.05,0.03-0.08,0.03C10.09,0.88,10.06,0.86,10.04,0.84
			 M10.34,0.84c-0.02-0.02-0.03-0.05-0.03-0.09c0-0.03,0.01-0.06,0.03-0.09c0.02-0.02,0.05-0.03,0.08-0.03s0.06,0.01,0.08,0.03
			c0.02,0.02,0.03,0.05,0.03,0.09c0,0.03-0.01,0.06-0.03,0.09c-0.02,0.02-0.05,0.03-0.08,0.03S10.36,0.86,10.34,0.84"/>
		<path class="st0" d="M11.01,2.17c0.08,0.01,0.14-0.01,0.17-0.05c0.04-0.04,0.05-0.1,0.05-0.18V1.01h0.22v0.94
			c0,0.13-0.04,0.24-0.11,0.32c-0.07,0.08-0.17,0.11-0.3,0.12L11.01,2.17z"/>
		<rect x="11.75" y="0.52" class="st0" width="0.22" height="1.43"/>
		<path class="st0" d="M13.95,1.84c0,0.07-0.01,0.1-0.04,0.1h-0.04c-0.16,0-0.27-0.05-0.33-0.14c-0.05,0.02-0.1,0.04-0.15,0.05
			c-0.05,0.01-0.11,0.02-0.16,0.02c-0.09,0-0.18-0.02-0.25-0.06c-0.08-0.04-0.14-0.1-0.18-0.17c-0.05-0.07-0.07-0.15-0.07-0.24
			c0-0.09,0.02-0.17,0.07-0.24C12.85,1.1,12.91,1.04,12.99,1c0.08-0.04,0.16-0.06,0.25-0.06h0.25V0.89h0.22v0.67
			c0,0.07,0.01,0.12,0.04,0.14c0.03,0.03,0.07,0.04,0.14,0.04h0.02C13.94,1.74,13.95,1.77,13.95,1.84 M13.49,1.6
			c0-0.01,0-0.03,0-0.05V1.14h-0.25c-0.05,0-0.1,0.01-0.14,0.04c-0.04,0.02-0.08,0.06-0.1,0.1c-0.03,0.04-0.04,0.09-0.04,0.13
			c0,0.05,0.01,0.09,0.04,0.13c0.02,0.04,0.06,0.07,0.1,0.1c0.04,0.02,0.09,0.04,0.15,0.04C13.33,1.67,13.41,1.65,13.49,1.6
			 M13.01,0.76c-0.02-0.02-0.03-0.05-0.03-0.09c0-0.03,0.01-0.06,0.03-0.09c0.02-0.02,0.05-0.03,0.08-0.03
			c0.03,0,0.06,0.01,0.08,0.03c0.02,0.02,0.03,0.05,0.03,0.09c0,0.03-0.01,0.06-0.03,0.09c-0.02,0.02-0.05,0.03-0.08,0.03
			C13.06,0.8,13.03,0.79,13.01,0.76 M13.31,0.76c-0.02-0.02-0.03-0.05-0.03-0.09c0-0.03,0.01-0.06,0.03-0.09
			c0.02-0.02,0.05-0.03,0.08-0.03c0.03,0,0.06,0.01,0.08,0.03c0.02,0.02,0.03,0.05,0.03,0.09c0,0.03-0.01,0.06-0.03,0.09
			C13.46,0.79,13.43,0.8,13.4,0.8C13.36,0.8,13.33,0.79,13.31,0.76"/>
		<path class="st0" d="M14.6,1.31c0.07,0.12,0.11,0.26,0.11,0.43v0.21h-0.79c-0.03,0-0.04-0.03-0.04-0.1c0-0.07,0.01-0.1,0.04-0.1
			h0.57V1.72c0-0.15-0.03-0.26-0.1-0.34c-0.06-0.08-0.15-0.12-0.27-0.12l-0.14-0.15l0.5-0.51l0.14,0.14l-0.32,0.32
			C14.43,1.11,14.53,1.19,14.6,1.31"/>
		<path class="st0" d="M16.91,1.01v0.55c0,0.13-0.03,0.23-0.09,0.29c-0.06,0.06-0.16,0.1-0.28,0.1c-0.12,0-0.21-0.03-0.28-0.08
			c-0.06,0.06-0.16,0.08-0.28,0.08c-0.26,0-0.38-0.13-0.38-0.39V1.54c-0.05,0.01-0.11,0.02-0.17,0.02c-0.06,0-0.12-0.01-0.17-0.02
			v0.41c0,0.13-0.04,0.24-0.11,0.32c-0.07,0.08-0.17,0.11-0.3,0.12l-0.03-0.21c0.08,0.01,0.14-0.01,0.17-0.05
			c0.04-0.04,0.05-0.1,0.05-0.18V1.01h0.22v0.32c0.05,0.01,0.11,0.02,0.17,0.02c0.06,0,0.11-0.01,0.17-0.02V1.1h0.22v0.45
			c0,0.05,0,0.09,0.01,0.12c0.01,0.03,0.03,0.04,0.05,0.05c0.02,0.01,0.06,0.02,0.1,0.02c0.04,0,0.08-0.01,0.1-0.02
			c0.02-0.01,0.04-0.03,0.05-0.05c0.01-0.03,0.01-0.06,0.01-0.12V1.1h0.22v0.45c0,0.06-0.01,0.11-0.02,0.15
			c0.04,0.02,0.09,0.03,0.16,0.03c0.07,0,0.12-0.01,0.15-0.04c0.03-0.03,0.04-0.08,0.04-0.14V1.01H16.91z M16.18,0.68
			c0.02,0.02,0.03,0.05,0.03,0.09c0,0.04-0.01,0.07-0.03,0.09c-0.02,0.02-0.05,0.03-0.08,0.03c-0.03,0-0.06-0.01-0.08-0.03
			c-0.02-0.02-0.03-0.05-0.03-0.09c0-0.03,0.01-0.06,0.03-0.09c0.02-0.02,0.05-0.03,0.08-0.03C16.13,0.64,16.16,0.65,16.18,0.68
			 M16.33,0.43c0.02,0.02,0.03,0.05,0.03,0.08c0,0.03-0.01,0.06-0.03,0.08c-0.02,0.02-0.05,0.03-0.08,0.03
			c-0.03,0-0.06-0.01-0.08-0.03c-0.02-0.02-0.03-0.05-0.03-0.08c0-0.03,0.01-0.06,0.03-0.08c0.02-0.02,0.05-0.03,0.08-0.03
			C16.28,0.39,16.31,0.4,16.33,0.43 M16.48,0.68c0.02,0.02,0.03,0.05,0.03,0.09c0,0.04-0.01,0.07-0.03,0.09
			c-0.02,0.02-0.05,0.03-0.08,0.03c-0.03,0-0.06-0.01-0.08-0.03c-0.02-0.02-0.03-0.05-0.03-0.09c0-0.03,0.01-0.06,0.03-0.09
			c0.02-0.02,0.05-0.03,0.08-0.03C16.43,0.64,16.46,0.65,16.48,0.68"/>
		<path class="st0" d="M6.73,2.84c0.08,0,0.15,0.03,0.21,0.09C7,2.99,7.03,3.06,7.03,3.14v0.72c0,0.01-0.01,0.02-0.02,0.02H6.94
			c-0.01,0-0.02-0.01-0.02-0.02V3.47H6.54v0.39c0,0.01-0.01,0.02-0.02,0.02H6.46c-0.01,0-0.02-0.01-0.02-0.02V3.14
			c0-0.08,0.03-0.15,0.09-0.21C6.58,2.87,6.65,2.84,6.73,2.84 M6.92,3.36V3.14c0-0.05-0.02-0.1-0.06-0.13
			C6.83,2.97,6.79,2.95,6.73,2.95c-0.05,0-0.1,0.02-0.13,0.06C6.56,3.04,6.54,3.09,6.54,3.14v0.22H6.92z"/>
		<path class="st0" d="M7.95,3.22c0,0.08-0.03,0.14-0.09,0.19c0.06,0.05,0.09,0.11,0.09,0.19v0.27c0,0.01-0.01,0.02-0.02,0.02H7.86
			c-0.01,0-0.02-0.01-0.02-0.02V3.59c0-0.04-0.01-0.07-0.04-0.09C7.78,3.47,7.75,3.46,7.71,3.46H7.46v0.4
			c0,0.01-0.01,0.02-0.02,0.02H7.37c-0.01,0-0.02-0.01-0.02-0.02V2.94c0-0.03,0.01-0.05,0.03-0.07C7.4,2.85,7.43,2.84,7.45,2.84
			h0.23v0c0.07,0.01,0.14,0.04,0.18,0.1C7.92,3,7.95,3.06,7.95,3.14V3.22z M7.71,3.35c0.04,0,0.07-0.01,0.09-0.04
			c0.03-0.03,0.04-0.06,0.04-0.09V3.14c0-0.05-0.02-0.1-0.06-0.13C7.75,2.97,7.7,2.95,7.65,2.95H7.46v0.41H7.71z"/>
		<path class="st0" d="M8.96,2.84c0.01,0,0.02,0.01,0.02,0.02v0.07c0,0.01-0.01,0.02-0.02,0.02H8.68v0.91
			c0,0.01-0.01,0.02-0.02,0.02H8.59c-0.01,0-0.02-0.01-0.02-0.02V2.95H8.29c-0.01,0-0.02-0.01-0.02-0.02V2.86
			c0-0.01,0.01-0.02,0.02-0.02H8.96z"/>
		<path class="st0" d="M10.35,3.79c-0.06-0.06-0.09-0.13-0.09-0.21V3.14c0-0.08,0.03-0.15,0.09-0.21c0.06-0.06,0.13-0.09,0.21-0.09
			c0.08,0,0.15,0.03,0.21,0.09c0.06,0.06,0.09,0.13,0.09,0.21v0.03c0,0.01-0.01,0.02-0.02,0.02h-0.07c-0.01,0-0.02-0.01-0.02-0.02
			V3.14c0-0.05-0.02-0.1-0.06-0.14c-0.04-0.04-0.08-0.06-0.13-0.06c-0.05,0-0.1,0.02-0.14,0.06c-0.04,0.04-0.06,0.08-0.06,0.14v0.44
			c0,0.05,0.02,0.1,0.06,0.14c0.04,0.04,0.08,0.06,0.14,0.06c0.05,0,0.1-0.02,0.13-0.06c0.04-0.04,0.06-0.08,0.06-0.14V3.55
			c0-0.01,0.01-0.02,0.02-0.02h0.07c0.01,0,0.02,0.01,0.02,0.02v0.03c0,0.08-0.03,0.15-0.09,0.21c-0.06,0.06-0.13,0.09-0.21,0.09
			C10.47,3.88,10.4,3.85,10.35,3.79"/>
		<path class="st0" d="M11.26,3.79c-0.06-0.06-0.09-0.13-0.09-0.21V3.14c0-0.08,0.03-0.15,0.09-0.21c0.06-0.06,0.13-0.09,0.21-0.09
			c0.08,0,0.15,0.03,0.21,0.09c0.06,0.06,0.09,0.13,0.09,0.21v0.44c0,0.08-0.03,0.15-0.09,0.21c-0.06,0.06-0.13,0.09-0.21,0.09
			C11.39,3.88,11.32,3.85,11.26,3.79 M11.34,3c-0.04,0.04-0.06,0.08-0.06,0.14v0.44c0,0.05,0.02,0.1,0.06,0.14
			c0.04,0.04,0.08,0.06,0.14,0.06c0.05,0,0.1-0.02,0.13-0.06c0.04-0.04,0.06-0.08,0.06-0.14V3.14c0-0.05-0.02-0.1-0.06-0.14
			c-0.04-0.04-0.08-0.06-0.13-0.06C11.42,2.95,11.37,2.97,11.34,3"/>
		<path class="st0" d="M12.81,2.84c0.08,0,0.14,0.03,0.19,0.08c0.05,0.05,0.08,0.12,0.08,0.19v0.74c0,0.01-0.01,0.02-0.02,0.02H13
			c-0.01,0-0.02-0.01-0.02-0.02V3.12c0-0.05-0.02-0.09-0.05-0.12c-0.03-0.03-0.07-0.05-0.12-0.05c-0.04,0-0.07,0.01-0.1,0.02
			c-0.05,0.02-0.07,0.06-0.07,0.11v0.78c0,0.01-0.01,0.02-0.02,0.02h-0.07c-0.01,0-0.02-0.01-0.02-0.02V3.08
			c0-0.05-0.02-0.09-0.07-0.11c-0.03-0.01-0.06-0.02-0.1-0.02c-0.05,0-0.09,0.02-0.12,0.05c-0.03,0.03-0.05,0.07-0.05,0.12v0.74
			c0,0.01-0.01,0.02-0.02,0.02h-0.07c-0.01,0-0.02-0.01-0.02-0.02V3.12c0-0.08,0.03-0.14,0.08-0.19c0.05-0.05,0.12-0.08,0.19-0.08
			c0.1,0,0.17,0.03,0.22,0.09C12.64,2.87,12.72,2.84,12.81,2.84"/>
		<path class="st0" d="M13.78,2.85c0.07,0.01,0.13,0.04,0.18,0.1c0.05,0.06,0.08,0.12,0.08,0.2v0.12c0,0.07-0.02,0.12-0.07,0.17
			c-0.05,0.05-0.1,0.07-0.17,0.07h-0.29v0.36c0,0.01-0.01,0.02-0.02,0.02h-0.07c-0.01,0-0.02-0.01-0.02-0.02V2.94
			c0-0.03,0.01-0.05,0.03-0.07c0.02-0.02,0.04-0.03,0.07-0.03L13.78,2.85L13.78,2.85z M13.94,3.14c0-0.05-0.02-0.1-0.06-0.13
			c-0.04-0.04-0.08-0.06-0.13-0.06h-0.23v0.44h0.29c0.04,0,0.07-0.01,0.09-0.04c0.03-0.03,0.04-0.06,0.04-0.09V3.14z"/>
		<path class="st0" d="M14.67,2.84c0.08,0,0.15,0.03,0.21,0.09c0.06,0.06,0.09,0.13,0.09,0.21v0.72c0,0.01-0.01,0.02-0.02,0.02
			h-0.07c-0.01,0-0.02-0.01-0.02-0.02V3.47h-0.38v0.39c0,0.01-0.01,0.02-0.02,0.02h-0.07c-0.01,0-0.02-0.01-0.02-0.02V3.14
			c0-0.08,0.03-0.15,0.09-0.21C14.51,2.87,14.58,2.84,14.67,2.84 M14.86,3.36V3.14c0-0.05-0.02-0.1-0.06-0.13
			c-0.04-0.04-0.08-0.06-0.13-0.06c-0.05,0-0.1,0.02-0.13,0.06c-0.04,0.04-0.06,0.08-0.06,0.13v0.22H14.86z"/>
		<path class="st0" d="M15.91,3.86l-0.52-0.78v0.79c0,0.01-0.01,0.02-0.02,0.02h-0.07c-0.01,0-0.02-0.01-0.02-0.02V2.9
			c0-0.03,0.01-0.04,0.04-0.05c0.01,0,0.01,0,0.02,0c0.02,0,0.03,0.01,0.04,0.02l0.52,0.78V2.86c0-0.01,0.01-0.02,0.02-0.02h0.07
			c0.01,0,0.02,0.01,0.02,0.02v0.96c0,0.03-0.01,0.04-0.04,0.05c0,0-0.01,0-0.02,0C15.94,3.88,15.92,3.87,15.91,3.86"/>
		<path class="st0" d="M16.91,2.84c0.01,0,0.02,0.01,0.02,0.02v0.72c0,0.08-0.03,0.15-0.09,0.21c-0.06,0.06-0.13,0.09-0.21,0.09
			c-0.06,0-0.12-0.02-0.17-0.05c-0.05-0.03-0.09-0.08-0.11-0.14l-0.01-0.03c0,0,0-0.01,0-0.01c0-0.01,0-0.01,0.01-0.02l0.06-0.02
			c0,0,0.01,0,0.01,0c0.01,0,0.01,0,0.02,0.01l0.01,0.03c0.01,0.04,0.04,0.07,0.07,0.09c0.03,0.02,0.07,0.03,0.11,0.03
			c0.05,0,0.1-0.02,0.13-0.06c0.04-0.04,0.06-0.08,0.06-0.14V3.44c-0.05,0.05-0.12,0.07-0.19,0.07h-0.06
			c-0.07,0-0.12-0.02-0.17-0.07c-0.05-0.05-0.07-0.1-0.07-0.17V2.86c0-0.01,0.01-0.02,0.02-0.02h0.07c0.01,0,0.02,0.01,0.02,0.02
			v0.41c0,0.04,0.01,0.07,0.04,0.09c0.03,0.03,0.06,0.04,0.09,0.04h0.06c0.05,0,0.1-0.02,0.13-0.06c0.04-0.04,0.06-0.08,0.06-0.13
			V2.86c0-0.01,0.01-0.02,0.02-0.02H16.91z"/>
		<path class="st2" d="M9.7,3.78H9.54V3.19c-0.06,0.05-0.12,0.09-0.2,0.12V3.17C9.38,3.16,9.43,3.13,9.48,3.1
			c0.05-0.04,0.08-0.08,0.1-0.13H9.7V3.78z M9.81,2.87H9.23v1.01h0.58V2.87z"/>
	</g>
</g>
</svg>
