<?xml version="1.0" encoding="utf-8"?>
<!-- Generator: Adobe Illustrator 26.0.0, SVG Export Plug-In . SVG Version: 6.00 Build 0)  -->
<svg version="1.1" id="Layer_1" xmlns="http://www.w3.org/2000/svg" xmlns:xlink="http://www.w3.org/1999/xlink" x="0px" y="0px"
	 viewBox="0 0 180.34 226.45" style="enable-background:new 0 0 180.34 226.45;" xml:space="preserve">
<style type="text/css">
	.st0{fill-rule:evenodd;clip-rule:evenodd;fill:none;stroke:#2DA1A5;stroke-miterlimit:10;}
	.st1{fill:none;stroke:#D42D5D;stroke-width:0.5;stroke-miterlimit:10;}
</style>
<g>
	<polygon class="st0" points="85.18,17.14 89.16,26.59 103.8,20.42 105.24,23.82 106.67,27.23 112.26,40.48 137.97,101.51 
		169.24,175.74 179.68,171.34 114.24,16.02 128.29,10.1 124.31,0.65 	"/>
	<path class="st0" d="M147.89,173.16c-2.39,0.74-4.85,1.06-7.34,0.98c-1.95-0.06-3.78-4.01-4.38-5.44l-16.44-39.01
		c-1.5-3.57-3.71-7.55-7.1-9.63c-0.77-0.47-1.57-0.86-2.39-1.17c0.35-0.86,0.6-1.78,0.75-2.77c0.58-3.68-0.06-7.29-1.49-10.7
		L81.55,39.07c-2-4.75-5.48-8.13-10.25-10.07c-4.75-1.94-9.6-1.96-14.33,0.03L34.73,38.4l37.93,90.02l-9.1,3.84l-6.31,2.66
		L9.41,49.07l-8.8,3.71l27.08,94.6l-9.43,3.97l3.98,9.45l7.96-3.35l20.1,68.34l10.34-4.25L40.5,153.1l11.67-4.92l35.26,61.95
		l9.55-3.89l-34.72-62.31l5.27-2.22l9.1-3.84l27.59,65.48l9.8-4.79l-27.35-64.92l9.91-4.18l1.89-0.8c2.17-0.91,4.46-1.32,6.58-0.1
		c2.14,1.24,3.64,3,4.6,5.28l16.45,39.04c1.99,4.73,5.15,8.65,9.86,10.83c5.19,2.41,10.84,1.46,15.93-0.68l3.43-1.45l-4.58-9.32
		L147.89,173.16z M37.41,143.27L24.58,98.29l22.4,40.95L37.41,143.27z M99.41,109.51c0.79,1.87,0.96,3.66,0.01,5.48
		c-1.1,2.1-3,3.42-5.15,4.32l-1.66,0.7l-9.91,4.18L48.75,43.62l12.36-5.21c2.01-0.84,3.9-0.89,5.9,0.01
		c2.11,0.96,3.52,2.55,4.42,4.68L99.41,109.51z"/>
</g>
</svg>
